solid exported
	facet normal 0.8320490466110865 0.00044703425023919266 -0.5547018876783827
		outer loop
			vertex 0 1.1021821192326179e-14 180
			vertex -0.5546998977661133 -0.0005547000910045767 179.16795349121094
			vertex -0.5547001957893372 1.1004838628690646e-14 179.16795349121094
		endloop
	endfacet
	facet normal 0.554700261463518 0.0002980233154534152 0.8320501974727296
		outer loop
			vertex -0.5547001957893372 1.1004838628690646e-14 179.16795349121094
			vertex -0.5546998977661133 -0.0005547000910045767 179.16795349121094
			vertex 26.697223663330078 8.223673167242152e-15 161
		endloop
	endfacet
	facet normal -0.5547002650439843 -0.0002774089387277176 -0.8320502022140337
		outer loop
			vertex -0.5546998977661133 -0.0005547000910045767 179.16795349121094
			vertex 26.69721031188965 0.026697220280776344 161
			vertex 26.697223663330078 8.223673167242152e-15 161
		endloop
	endfacet
	facet normal 0 6.123233995736766e-17 1
		outer loop
			vertex 26.697223663330078 8.223673167242152e-15 161
			vertex 26.69721031188965 0.026697220280776344 161
			vertex 14 9.001153962796356e-15 161
		endloop
	endfacet
	facet normal 0 6.123233995736766e-17 1
		outer loop
			vertex 26.69721031188965 0.026697220280776344 161
			vertex 13.999993324279785 0.01399999763817581 161
			vertex 14 9.001153962796356e-15 161
		endloop
	endfacet
	facet normal -0.9999998863131434 -0.00047683718443657086 2.919785658173413e-20
		outer loop
			vertex 14 9.001153962796356e-15 161
			vertex 13.999993324279785 0.01399999763817581 161
			vertex 14 7.654042483734268e-15 139
		endloop
	endfacet
	facet normal -0.9999998863131434 -0.00047683718443657086 2.919785658173413e-20
		outer loop
			vertex 13.999993324279785 0.01399999763817581 161
			vertex 13.999993324279785 0.013999997638174461 139
			vertex 14 7.654042483734268e-15 139
		endloop
	endfacet
	facet normal 0 -6.123233995736766e-17 -1
		outer loop
			vertex 14 7.654042483734268e-15 139
			vertex 13.999993324279785 0.013999997638174461 139
			vertex 27 6.858022042788798e-15 139
		endloop
	endfacet
	facet normal 0 -6.123233995736766e-17 -1
		outer loop
			vertex 13.999993324279785 0.013999997638174461 139
			vertex 26.99998664855957 0.02699999511242764 139
			vertex 27 6.858022042788798e-15 139
		endloop
	endfacet
	facet normal 0.9999998777359441 0.0004944978227475378 -3.027925879065537e-20
		outer loop
			vertex 27 6.858022042788798e-15 139
			vertex 26.99998664855957 0.02699999511242764 139
			vertex 27 7.164183742575636e-15 144
		endloop
	endfacet
	facet normal 0.9999998777359441 0.0004944978227475378 -3.027925879065537e-20
		outer loop
			vertex 26.99998664855957 0.02699999511242764 139
			vertex 26.99998664855957 0.026999995112427944 144
			vertex 27 7.164183742575636e-15 144
		endloop
	endfacet
	facet normal -0.9999998777359441 -0.0004944978227475378 3.027925879065537e-20
		outer loop
			vertex 27 7.164183742575636e-15 144
			vertex 26.99998664855957 0.026999995112427944 144
			vertex 27 6.858022042788798e-15 139
		endloop
	endfacet
	facet normal -0.9999998777359441 -0.0004944978227475378 3.027925879065537e-20
		outer loop
			vertex 26.99998664855957 0.026999995112427944 144
			vertex 26.99998664855957 0.02699999511242764 139
			vertex 27 6.858022042788798e-15 139
		endloop
	endfacet
	facet normal 0 -6.123233995736766e-17 -1
		outer loop
			vertex 27 6.858022042788798e-15 139
			vertex 26.99998664855957 0.02699999511242764 139
			vertex 29 6.735557384000061e-15 139
		endloop
	endfacet
	facet normal 0 -6.123233995736766e-17 -1
		outer loop
			vertex 26.99998664855957 0.02699999511242764 139
			vertex 28.999984741210938 0.028999995440253185 139
			vertex 29 6.735557384000061e-15 139
		endloop
	endfacet
	facet normal -0.9999998615751079 -0.0005261651499823165 3.2218323337436545e-20
		outer loop
			vertex 29 6.735557384000061e-15 139
			vertex 28.999984741210938 0.028999995440253185 139
			vertex 29 6.699688403119882e-15 138.41421508789062
		endloop
	endfacet
	facet normal -0.9999998615751079 -0.0005261651499823165 3.2218323337436545e-20
		outer loop
			vertex 28.999984741210938 0.028999995440253185 139
			vertex 28.999984741210938 0.02899999544025315 138.41421508789062
			vertex 29 6.699688403119882e-15 138.41421508789062
		endloop
	endfacet
	facet normal -0.7071067322459526 -0.00037205497132732334 0.7071067322459526
		outer loop
			vertex 29 6.699688403119882e-15 138.41421508789062
			vertex 28.999984741210938 0.02899999544025315 138.41421508789062
			vertex 27 6.699688381993884e-15 136.41421508789062
		endloop
	endfacet
	facet normal -0.7071069003030171 -0.00034966286540075907 0.70710657561625
		outer loop
			vertex 28.999984741210938 0.02899999544025315 138.41421508789062
			vertex 26.99998664855957 0.026999995112427483 136.41421508789062
			vertex 27 6.699688381993884e-15 136.41421508789062
		endloop
	endfacet
	facet normal -0.9999998777359442 -0.000494497822747538 3.027925879065538e-20
		outer loop
			vertex 27 6.699688381993884e-15 136.41421508789062
			vertex 26.99998664855957 0.026999995112427483 136.41421508789062
			vertex 27 6.514301156692965e-15 133.38661193847656
		endloop
	endfacet
	facet normal -0.9999998777359442 -0.000494497822747538 3.027925879065538e-20
		outer loop
			vertex 26.99998664855957 0.026999995112427483 136.41421508789062
			vertex 26.99998664855957 0.026999995112427295 133.38661193847656
			vertex 27 6.514301156692965e-15 133.38661193847656
		endloop
	endfacet
	facet normal -0.7399400642796727 -0.0003658987954862009 0.6726727045093069
		outer loop
			vertex 27 6.514301156692965e-15 133.38661193847656
			vertex 26.99998664855957 0.026999995112427295 133.38661193847656
			vertex 16.944910049438477 6.452731428704052e-15 122.32601165771484
		endloop
	endfacet
	facet normal -0.7399401125315036 -0.00033315584713590544 0.6726726684458403
		outer loop
			vertex 26.99998664855957 0.026999995112427295 133.38661193847656
			vertex 16.944902420043945 0.01694490760565553 122.32601165771484
			vertex 16.944910049438477 6.452731428704052e-15 122.32601165771484
		endloop
	endfacet
	facet normal -0.9904306178861209 -0.00044593845629255197 -0.13801084121405124
		outer loop
			vertex 16.944910049438477 6.452731428704052e-15 122.32601165771484
			vertex 16.944902420043945 0.01694490760565553 122.32601165771484
			vertex 34.00957107543945 -2.0909362849199017e-15 -0.13801084458827972
		endloop
	endfacet
	facet normal -0.9904305656447606 -0.0005554603252710718 -0.138010818780365
		outer loop
			vertex 16.944902420043945 0.01694490760565553 122.32601165771484
			vertex 34.009552001953125 0.03400956466794013 -0.13801084458827972
			vertex 34.00957107543945 -2.0909362849199017e-15 -0.13801084458827972
		endloop
	endfacet
	facet normal 0.13801108929451505 0.00007740036223597395 -0.9904306806843806
		outer loop
			vertex 34.00957107543945 -2.0909362849199017e-15 -0.13801084458827972
			vertex 34.009552001953125 0.03400956466794013 -0.13801084458827972
			vertex 35 -2.143131846440256e-15 1.3122897779469083e-31
		endloop
	endfacet
	facet normal 0.13801101554012726 0.0000752100504909815 -0.9904306911303946
		outer loop
			vertex 34.009552001953125 0.03400956466794013 -0.13801084458827972
			vertex 34.99998092651367 0.034999992698431015 -2.1431314514157137e-18
			vertex 35 -2.143131846440256e-15 1.3122897779469083e-31
		endloop
	endfacet
	facet normal 0.9904305744781859 0.0005397419417779664 0.13801081775515703
		outer loop
			vertex 35 -2.143131846440256e-15 1.3122897779469083e-31
			vertex 34.99998092651367 0.034999992698431015 -2.1431314514157137e-18
			vertex 18 6.368163333941984e-15 122
		endloop
	endfacet
	facet normal 0.9904305829696436 0.0005247490819801314 0.13801081463716225
		outer loop
			vertex 34.99998092651367 0.034999992698431015 -2.1431314514157137e-18
			vertex 17.999990463256836 0.01799999736250194 122
			vertex 18 6.368163333941984e-15 122
		endloop
	endfacet
	facet normal 0.7399400165348917 0.00039203438491650593 -0.6726727423044472
		outer loop
			vertex 18 6.368163333941984e-15 122
			vertex 17.999990463256836 0.01799999736250194 122
			vertex 28 6.4293956736502226e-15 133
		endloop
	endfacet
	facet normal 0.7399399954081014 0.000352830944174608 -0.6726727872493311
		outer loop
			vertex 17.999990463256836 0.01799999736250194 122
			vertex 27.99998664855957 0.027999995276340044 133
			vertex 28 6.4293956736502226e-15 133
		endloop
	endfacet
	facet normal 0.9999998863131433 0.0004768371844365709 -2.9197856581734136e-20
		outer loop
			vertex 28 6.4293956736502226e-15 133
			vertex 27.99998664855957 0.027999995276340044 133
			vertex 28 6.613092693522325e-15 136
		endloop
	endfacet
	facet normal 0.9999998863131433 0.0004768371844365709 -2.9197856581734136e-20
		outer loop
			vertex 27.99998664855957 0.027999995276340044 133
			vertex 27.99998664855957 0.027999995276340228 136
			vertex 28 6.613092693522325e-15 136
		endloop
	endfacet
	facet normal 0.7071067409921705 0.000337174825803129 -0.7071067409921705
		outer loop
			vertex 28 6.613092693522325e-15 136
			vertex 27.99998664855957 0.027999995276340228 136
			vertex 30 6.613092820527443e-15 138
		endloop
	endfacet
	facet normal 0.7071068928024467 0.00035965321676297626 -0.7071065781060397
		outer loop
			vertex 27.99998664855957 0.027999995276340228 136
			vertex 29.999984741210938 0.0299999956041659 138
			vertex 30 6.613092820527443e-15 138
		endloop
	endfacet
	facet normal 0.9999998706496297 0.000508626310820341 -3.114437917541287e-20
		outer loop
			vertex 30 6.613092820527443e-15 138
			vertex 29.999984741210938 0.0299999956041659 138
			vertex 30 6.7355575004421784e-15 140
		endloop
	endfacet
	facet normal 0.9999998706496297 0.000508626310820341 -3.114437917541287e-20
		outer loop
			vertex 29.999984741210938 0.0299999956041659 138
			vertex 29.999984741210938 0.02999999560416602 140
			vertex 30 6.7355575004421784e-15 140
		endloop
	endfacet
	facet normal 0 6.123233995736766e-17 1
		outer loop
			vertex 30 6.7355575004421784e-15 140
			vertex 29.999984741210938 0.02999999560416602 140
			vertex 28 6.858022053351797e-15 140
		endloop
	endfacet
	facet normal 0 6.123233995736766e-17 1
		outer loop
			vertex 29.999984741210938 0.02999999560416602 140
			vertex 27.99998664855957 0.027999995276340475 140
			vertex 28 6.858022053351797e-15 140
		endloop
	endfacet
	facet normal 0.9999998863131434 0.00047683718443657086 -2.919785658173413e-20
		outer loop
			vertex 28 6.858022053351797e-15 140
			vertex 27.99998664855957 0.027999995276340475 140
			vertex 28 7.164183753138635e-15 145
		endloop
	endfacet
	facet normal 0.9999998863131434 0.00047683718443657086 -2.919785658173413e-20
		outer loop
			vertex 27.99998664855957 0.027999995276340475 140
			vertex 27.99998664855957 0.02799999527634078 145
			vertex 28 7.164183753138635e-15 145
		endloop
	endfacet
	facet normal 0 6.123233995736766e-17 1
		outer loop
			vertex 28 7.164183753138635e-15 145
			vertex 27.99998664855957 0.02799999527634078 145
			vertex 26 7.286648411927372e-15 145
		endloop
	endfacet
	facet normal 0 6.123233995736766e-17 1
		outer loop
			vertex 27.99998664855957 0.02799999527634078 145
			vertex 25.99998664855957 0.025999994948515234 145
			vertex 26 7.286648411927372e-15 145
		endloop
	endfacet
	facet normal -0.9999998681501512 -0.0005135169716665 3.144384578296106e-20
		outer loop
			vertex 26 7.286648411927372e-15 145
			vertex 25.99998664855957 0.025999994948515234 145
			vertex 26 6.980486712140534e-15 140
		endloop
	endfacet
	facet normal -0.9999998681501512 -0.0005135169716665 3.144384578296106e-20
		outer loop
			vertex 25.99998664855957 0.025999994948515234 145
			vertex 25.99998664855957 0.02599999494851493 140
			vertex 26 6.980486712140534e-15 140
		endloop
	endfacet
	facet normal 0 6.123233995736766e-17 1
		outer loop
			vertex 26 6.980486712140534e-15 140
			vertex 25.99998664855957 0.02599999494851493 140
			vertex 15 7.654042547236826e-15 140
		endloop
	endfacet
	facet normal 0 6.123233995736766e-17 1
		outer loop
			vertex 25.99998664855957 0.02599999494851493 140
			vertex 14.999992370605469 0.014999997802087297 140
			vertex 15 7.654042547236826e-15 140
		endloop
	endfacet
	facet normal 0.9999998706496296 0.0005086263108203409 -3.1144379175412864e-20
		outer loop
			vertex 15 7.654042547236826e-15 140
			vertex 14.999992370605469 0.014999997802087297 140
			vertex 15 8.878689346384179e-15 160
		endloop
	endfacet
	facet normal 0.9999998706496296 0.0005086263108203409 -3.1144379175412864e-20
		outer loop
			vertex 14.999992370605469 0.014999997802087297 140
			vertex 14.999992370605469 0.014999997802088522 160
			vertex 15 8.878689346384179e-15 160
		endloop
	endfacet
	facet normal 0 -6.123233995736766e-17 -1
		outer loop
			vertex 15 8.878689346384179e-15 160
			vertex 14.999992370605469 0.014999997802088522 160
			vertex 30 7.960204299589531e-15 160
		endloop
	endfacet
	facet normal 0 -6.123233995736766e-17 -1
		outer loop
			vertex 14.999992370605469 0.014999997802088522 160
			vertex 29.999984741210938 0.029999995604167246 160
			vertex 30 7.960204299589531e-15 160
		endloop
	endfacet
	facet normal 0.5547001741480951 0.00028213513968268207 0.8320502612221428
		outer loop
			vertex 30 7.960204299589531e-15 160
			vertex 29.999984741210938 0.029999995604167246 160
			vertex 0 1.1021821192326179e-14 180
		endloop
	endfacet
	facet normal 0.7499991494213472 0.43301220360425063 -0.5000017073941316
		outer loop
			vertex 0 1.1021821192326179e-14 180
			vertex -0.2773500978946686 -0.4803844690322766 179.16795349121094
			vertex -0.5547001957893372 1.1004838628690646e-14 179.16795349121094
		endloop
	endfacet
	facet normal 0.5282706222411764 0.30499718088017563 0.7924057479171045
		outer loop
			vertex -0.5547001957893372 1.1004838628690646e-14 179.16795349121094
			vertex -0.2773500978946686 -0.4803844690322766 179.16795349121094
			vertex 26.697223663330078 8.223673167242152e-15 161
		endloop
	endfacet
	facet normal -0.5282706212734565 -0.3049971859415487 -0.7924057466141275
		outer loop
			vertex -0.2773500978946686 -0.4803844690322766 179.16795349121094
			vertex 13.348611831665039 23.120473861694347 161
			vertex 26.697223663330078 8.223673167242152e-15 161
		endloop
	endfacet
	facet normal 0 6.123233995736766e-17 1
		outer loop
			vertex 26.697223663330078 8.223673167242152e-15 161
			vertex 13.348611831665039 23.120473861694347 161
			vertex 14 9.001153962796356e-15 161
		endloop
	endfacet
	facet normal 0 6.123233995736766e-17 1
		outer loop
			vertex 13.348611831665039 23.120473861694347 161
			vertex 7 12.12435531616212 161
			vertex 14 9.001153962796356e-15 161
		endloop
	endfacet
	facet normal -0.8660253977697951 -0.5000000104176682 3.0616170616582026e-17
		outer loop
			vertex 14 9.001153962796356e-15 161
			vertex 7 12.12435531616212 161
			vertex 14 7.654042483734268e-15 139
		endloop
	endfacet
	facet normal -0.8660253977697951 -0.5000000104176682 3.0616170616582026e-17
		outer loop
			vertex 7 12.12435531616212 161
			vertex 7 12.124355316162118 139
			vertex 14 7.654042483734268e-15 139
		endloop
	endfacet
	facet normal 0 -6.123233995736766e-17 -1
		outer loop
			vertex 14 7.654042483734268e-15 139
			vertex 7 12.124355316162118 139
			vertex 27 6.858022042788798e-15 139
		endloop
	endfacet
	facet normal 0 -6.123233995736766e-17 -1
		outer loop
			vertex 7 12.124355316162118 139
			vertex 13.5 23.38268661499024 139
			vertex 27 6.858022042788798e-15 139
		endloop
	endfacet
	facet normal 0.8660254103845347 0.4999999885682983 -3.0616169278693985e-17
		outer loop
			vertex 27 6.858022042788798e-15 139
			vertex 13.5 23.38268661499024 139
			vertex 27 7.164183742575636e-15 144
		endloop
	endfacet
	facet normal 0.8660254103845347 0.4999999885682983 -3.0616169278693985e-17
		outer loop
			vertex 13.5 23.38268661499024 139
			vertex 13.5 23.38268661499024 144
			vertex 27 7.164183742575636e-15 144
		endloop
	endfacet
	facet normal -0.8660254103845347 -0.4999999885682983 3.0616169278693985e-17
		outer loop
			vertex 27 7.164183742575636e-15 144
			vertex 13.5 23.38268661499024 144
			vertex 27 6.858022042788798e-15 139
		endloop
	endfacet
	facet normal -0.8660254103845347 -0.4999999885682983 3.0616169278693985e-17
		outer loop
			vertex 13.5 23.38268661499024 144
			vertex 13.5 23.38268661499024 139
			vertex 27 6.858022042788798e-15 139
		endloop
	endfacet
	facet normal 0 -6.123233995736766e-17 -1
		outer loop
			vertex 27 6.858022042788798e-15 139
			vertex 13.5 23.38268661499024 139
			vertex 29 6.735557384000061e-15 139
		endloop
	endfacet
	facet normal 0 -6.123233995736766e-17 -1
		outer loop
			vertex 13.5 23.38268661499024 139
			vertex 14.5 25.114736557006843 139
			vertex 29 6.735557384000061e-15 139
		endloop
	endfacet
	facet normal -0.8660254024676983 -0.5000000022806613 3.061617011833406e-17
		outer loop
			vertex 29 6.735557384000061e-15 139
			vertex 14.5 25.114736557006843 139
			vertex 29 6.699688403119882e-15 138.41421508789062
		endloop
	endfacet
	facet normal -0.8660254024676983 -0.5000000022806613 3.061617011833406e-17
		outer loop
			vertex 14.5 25.114736557006843 139
			vertex 14.5 25.114736557006843 138.41421508789062
			vertex 29 6.699688403119882e-15 138.41421508789062
		endloop
	endfacet
	facet normal -0.6546536701391987 -0.37796447497953334 0.6546536701391987
		outer loop
			vertex 29 6.699688403119882e-15 138.41421508789062
			vertex 14.5 25.114736557006843 138.41421508789062
			vertex 27 6.699688381993884e-15 136.41421508789062
		endloop
	endfacet
	facet normal -0.6546537479385575 -0.37796450607624993 0.6546535743861298
		outer loop
			vertex 14.5 25.114736557006843 138.41421508789062
			vertex 13.5 23.38268661499024 136.41421508789062
			vertex 27 6.699688381993884e-15 136.41421508789062
		endloop
	endfacet
	facet normal -0.8660254103845347 -0.4999999885682983 3.0616169278693985e-17
		outer loop
			vertex 27 6.699688381993884e-15 136.41421508789062
			vertex 13.5 23.38268661499024 136.41421508789062
			vertex 27 6.514301156692965e-15 133.38661193847656
		endloop
	endfacet
	facet normal -0.8660254103845347 -0.4999999885682983 3.0616169278693985e-17
		outer loop
			vertex 13.5 23.38268661499024 136.41421508789062
			vertex 13.5 23.38268661499024 133.38661193847656
			vertex 27 6.514301156692965e-15 133.38661193847656
		endloop
	endfacet
	facet normal -0.6804485661767474 -0.39285715087577106 0.618589530944212
		outer loop
			vertex 27 6.514301156692965e-15 133.38661193847656
			vertex 13.5 23.38268661499024 133.38661193847656
			vertex 16.944910049438477 6.452731428704052e-15 122.32601165771484
		endloop
	endfacet
	facet normal -0.6804485850789974 -0.39285714545398887 0.6185895135950286
		outer loop
			vertex 13.5 23.38268661499024 133.38661193847656
			vertex 8.472455024719238 14.674723625183113 122.32601165771484
			vertex 16.944910049438477 6.452731428704052e-15 122.32601165771484
		endloop
	endfacet
	facet normal -0.859787665528596 -0.4963986043661169 -0.11980649309723812
		outer loop
			vertex 16.944910049438477 6.452731428704052e-15 122.32601165771484
			vertex 8.472455024719238 14.674723625183113 122.32601165771484
			vertex 34.00957107543945 -2.0909362849199017e-15 -0.13801084458827972
		endloop
	endfacet
	facet normal -0.8597876449727925 -0.4963986420955211 -0.11980648428971652
		outer loop
			vertex 8.472455024719238 14.674723625183113 122.32601165771484
			vertex 17.004785537719727 29.45315170288086 -0.13801084458828153
			vertex 34.00957107543945 -2.0909362849199017e-15 -0.13801084458827972
		endloop
	endfacet
	facet normal 0.13757504731535952 0.07942899281337375 -0.9873014440670235
		outer loop
			vertex 34.00957107543945 -2.0909362849199017e-15 -0.13801084458827972
			vertex 17.004785537719727 29.45315170288086 -0.13801084458828153
			vertex 35 -2.143131846440256e-15 1.3122897779469083e-31
		endloop
	endfacet
	facet normal 0.13757504715591734 0.07942899271581726 -0.9873014440970893
		outer loop
			vertex 17.004785537719727 29.45315170288086 -0.13801084458828153
			vertex 17.5 30.310888290405273 -1.85600661620789e-15
			vertex 35 -2.143131846440256e-15 1.3122897779469083e-31
		endloop
	endfacet
	facet normal 0.8597876459321114 0.4963986426149958 0.11980647525283515
		outer loop
			vertex 35 -2.143131846440256e-15 1.3122897779469083e-31
			vertex 17.5 30.310888290405273 -1.85600661620789e-15
			vertex 18 6.368163333941984e-15 122
		endloop
	endfacet
	facet normal 0.8597876498574062 0.49639863620446767 0.11980647364405278
		outer loop
			vertex 17.5 30.310888290405273 -1.85600661620789e-15
			vertex 9 15.588457107543952 122
			vertex 18 6.368163333941984e-15 122
		endloop
	endfacet
	facet normal 0.6804485304631286 0.39285714627937507 -0.6185895731482988
		outer loop
			vertex 18 6.368163333941984e-15 122
			vertex 9 15.588457107543952 122
			vertex 28 6.4293956736502226e-15 133
		endloop
	endfacet
	facet normal 0.680448532723576 0.39285715445139013 -0.61858956547188
		outer loop
			vertex 9 15.588457107543952 122
			vertex 14 24.248710632324226 133
			vertex 28 6.4293956736502226e-15 133
		endloop
	endfacet
	facet normal 0.8660253977697951 0.5000000104176683 -3.061617061658204e-17
		outer loop
			vertex 28 6.4293956736502226e-15 133
			vertex 14 24.248710632324226 133
			vertex 28 6.613092693522325e-15 136
		endloop
	endfacet
	facet normal 0.8660253977697951 0.5000000104176683 -3.061617061658204e-17
		outer loop
			vertex 14 24.248710632324226 133
			vertex 14 24.248710632324226 136
			vertex 28 6.613092693522325e-15 136
		endloop
	endfacet
	facet normal 0.6546536681098956 0.37796448200924676 -0.6546536681098949
		outer loop
			vertex 28 6.613092693522325e-15 136
			vertex 14 24.248710632324226 136
			vertex 30 6.613092820527443e-15 138
		endloop
	endfacet
	facet normal 0.6546535896435027 0.3779644208507458 -0.6546537818861483
		outer loop
			vertex 14 24.248710632324226 136
			vertex 15 25.98076248168946 138
			vertex 30 6.613092820527443e-15 138
		endloop
	endfacet
	facet normal 0.8660254068524077 0.4999999946861216 -3.061616965330262e-17
		outer loop
			vertex 30 6.613092820527443e-15 138
			vertex 15 25.98076248168946 138
			vertex 30 6.7355575004421784e-15 140
		endloop
	endfacet
	facet normal 0.8660254068524077 0.4999999946861216 -3.061616965330262e-17
		outer loop
			vertex 15 25.98076248168946 138
			vertex 15 25.98076248168946 140
			vertex 30 6.7355575004421784e-15 140
		endloop
	endfacet
	facet normal 0 6.123233995736766e-17 1
		outer loop
			vertex 30 6.7355575004421784e-15 140
			vertex 15 25.98076248168946 140
			vertex 28 6.858022053351797e-15 140
		endloop
	endfacet
	facet normal 0 6.123233995736766e-17 1
		outer loop
			vertex 15 25.98076248168946 140
			vertex 14 24.248710632324226 140
			vertex 28 6.858022053351797e-15 140
		endloop
	endfacet
	facet normal 0.866025397769795 0.5000000104176682 -3.0616170616582026e-17
		outer loop
			vertex 28 6.858022053351797e-15 140
			vertex 14 24.248710632324226 140
			vertex 28 7.164183753138635e-15 145
		endloop
	endfacet
	facet normal 0.866025397769795 0.5000000104176682 -3.0616170616582026e-17
		outer loop
			vertex 14 24.248710632324226 140
			vertex 14 24.248710632324226 145
			vertex 28 7.164183753138635e-15 145
		endloop
	endfacet
	facet normal 0 6.123233995736766e-17 1
		outer loop
			vertex 28 7.164183753138635e-15 145
			vertex 14 24.248710632324226 145
			vertex 26 7.286648411927372e-15 145
		endloop
	endfacet
	facet normal 0 6.123233995736766e-17 1
		outer loop
			vertex 14 24.248710632324226 145
			vertex 13 22.516660690307624 145
			vertex 26 7.286648411927372e-15 145
		endloop
	endfacet
	facet normal -0.8660254056297484 -0.4999999968038298 3.061616978297485e-17
		outer loop
			vertex 26 7.286648411927372e-15 145
			vertex 13 22.516660690307624 145
			vertex 26 6.980486712140534e-15 140
		endloop
	endfacet
	facet normal -0.8660254056297484 -0.4999999968038298 3.061616978297485e-17
		outer loop
			vertex 13 22.516660690307624 145
			vertex 13 22.516660690307624 140
			vertex 26 6.980486712140534e-15 140
		endloop
	endfacet
	facet normal 0 6.123233995736766e-17 1
		outer loop
			vertex 26 6.980486712140534e-15 140
			vertex 13 22.516660690307624 140
			vertex 15 7.654042547236826e-15 140
		endloop
	endfacet
	facet normal 0 6.123233995736766e-17 1
		outer loop
			vertex 13 22.516660690307624 140
			vertex 7.5 12.990381240844735 140
			vertex 15 7.654042547236826e-15 140
		endloop
	endfacet
	facet normal 0.8660254068524078 0.4999999946861216 -3.061616965330262e-17
		outer loop
			vertex 15 7.654042547236826e-15 140
			vertex 7.5 12.990381240844735 140
			vertex 15 8.878689346384179e-15 160
		endloop
	endfacet
	facet normal 0.8660254068524078 0.4999999946861216 -3.061616965330262e-17
		outer loop
			vertex 7.5 12.990381240844735 140
			vertex 7.5 12.990381240844737 160
			vertex 15 8.878689346384179e-15 160
		endloop
	endfacet
	facet normal 0 -6.123233995736766e-17 -1
		outer loop
			vertex 15 8.878689346384179e-15 160
			vertex 7.5 12.990381240844737 160
			vertex 30 7.960204299589531e-15 160
		endloop
	endfacet
	facet normal 0 -6.123233995736766e-17 -1
		outer loop
			vertex 7.5 12.990381240844737 160
			vertex 15 25.980762481689464 160
			vertex 30 7.960204299589531e-15 160
		endloop
	endfacet
	facet normal 0.5282705444917255 0.304997136745334 0.7924058167375881
		outer loop
			vertex 30 7.960204299589531e-15 160
			vertex 15 25.980762481689464 160
			vertex 0 1.1021821192326179e-14 180
		endloop
	endfacet
	facet normal 0 0.8660244153154067 -0.5000017120746769
		outer loop
			vertex 0 1.1021821192326179e-14 180
			vertex 0.2773500978946686 -0.4803844690322766 179.16795349121094
			vertex -0.2773500978946686 -0.4803844690322766 179.16795349121094
		endloop
	endfacet
	facet normal 0 0.6099943715074463 0.7924057462747451
		outer loop
			vertex -0.2773500978946686 -0.4803844690322766 179.16795349121094
			vertex 0.2773500978946686 -0.4803844690322766 179.16795349121094
			vertex 13.348611831665039 23.120473861694347 161
		endloop
	endfacet
	facet normal 0 -0.6099943715074463 -0.7924057462747452
		outer loop
			vertex 0.2773500978946686 -0.4803844690322766 179.16795349121094
			vertex -13.348611831665039 23.120473861694347 161
			vertex 13.348611831665039 23.120473861694347 161
		endloop
	endfacet
	facet normal 0 6.123233995736766e-17 1
		outer loop
			vertex 13.348611831665039 23.120473861694347 161
			vertex -13.348611831665039 23.120473861694347 161
			vertex 7 12.12435531616212 161
		endloop
	endfacet
	facet normal 0 6.123233995736766e-17 1
		outer loop
			vertex -13.348611831665039 23.120473861694347 161
			vertex -7 12.12435531616212 161
			vertex 7 12.12435531616212 161
		endloop
	endfacet
	facet normal 0 -1 6.123233995736766e-17
		outer loop
			vertex 7 12.12435531616212 161
			vertex -7 12.12435531616212 161
			vertex 7 12.124355316162118 139
		endloop
	endfacet
	facet normal 0 -1 6.123233995736766e-17
		outer loop
			vertex -7 12.12435531616212 161
			vertex -7 12.124355316162118 139
			vertex 7 12.124355316162118 139
		endloop
	endfacet
	facet normal 0 -6.123233995736766e-17 -1
		outer loop
			vertex 7 12.124355316162118 139
			vertex -7 12.124355316162118 139
			vertex 13.5 23.38268661499024 139
		endloop
	endfacet
	facet normal 0 -6.123233995736766e-17 -1
		outer loop
			vertex -7 12.124355316162118 139
			vertex -13.5 23.38268661499024 139
			vertex 13.5 23.38268661499024 139
		endloop
	endfacet
	facet normal 0 1 -6.123233995736766e-17
		outer loop
			vertex 13.5 23.38268661499024 139
			vertex -13.5 23.38268661499024 139
			vertex 13.5 23.38268661499024 144
		endloop
	endfacet
	facet normal 0 1 -6.123233995736766e-17
		outer loop
			vertex -13.5 23.38268661499024 139
			vertex -13.5 23.38268661499024 144
			vertex 13.5 23.38268661499024 144
		endloop
	endfacet
	facet normal 0 -1 6.123233995736766e-17
		outer loop
			vertex 13.5 23.38268661499024 144
			vertex -13.5 23.38268661499024 144
			vertex 13.5 23.38268661499024 139
		endloop
	endfacet
	facet normal 0 -1 6.123233995736766e-17
		outer loop
			vertex -13.5 23.38268661499024 144
			vertex -13.5 23.38268661499024 139
			vertex 13.5 23.38268661499024 139
		endloop
	endfacet
	facet normal 0 -6.123233995736766e-17 -1
		outer loop
			vertex 13.5 23.38268661499024 139
			vertex -13.5 23.38268661499024 139
			vertex 14.5 25.114736557006843 139
		endloop
	endfacet
	facet normal 0 -6.123233995736766e-17 -1
		outer loop
			vertex -13.5 23.38268661499024 139
			vertex -14.5 25.114736557006843 139
			vertex 14.5 25.114736557006843 139
		endloop
	endfacet
	facet normal 0 -1 6.123233995736766e-17
		outer loop
			vertex 14.5 25.114736557006843 139
			vertex -14.5 25.114736557006843 139
			vertex 14.5 25.114736557006843 138.41421508789062
		endloop
	endfacet
	facet normal 0 -1 6.123233995736766e-17
		outer loop
			vertex -14.5 25.114736557006843 139
			vertex -14.5 25.114736557006843 138.41421508789062
			vertex 14.5 25.114736557006843 138.41421508789062
		endloop
	endfacet
	facet normal 0 -0.7559291079147444 0.6546534837661973
		outer loop
			vertex 14.5 25.114736557006843 138.41421508789062
			vertex -14.5 25.114736557006843 138.41421508789062
			vertex 13.5 23.38268661499024 136.41421508789062
		endloop
	endfacet
	facet normal 0 -0.7559291079147444 0.6546534837661971
		outer loop
			vertex -14.5 25.114736557006843 138.41421508789062
			vertex -13.5 23.38268661499024 136.41421508789062
			vertex 13.5 23.38268661499024 136.41421508789062
		endloop
	endfacet
	facet normal 0 -1 6.123233995736766e-17
		outer loop
			vertex 13.5 23.38268661499024 136.41421508789062
			vertex -13.5 23.38268661499024 136.41421508789062
			vertex 13.5 23.38268661499024 133.38661193847656
		endloop
	endfacet
	facet normal 0 -1 6.123233995736766e-17
		outer loop
			vertex -13.5 23.38268661499024 136.41421508789062
			vertex -13.5 23.38268661499024 133.38661193847656
			vertex 13.5 23.38268661499024 133.38661193847656
		endloop
	endfacet
	facet normal 0 -0.7857143339088664 0.6185895129163982
		outer loop
			vertex 13.5 23.38268661499024 133.38661193847656
			vertex -13.5 23.38268661499024 133.38661193847656
			vertex 8.472455024719238 14.674723625183113 122.32601165771484
		endloop
	endfacet
	facet normal 0 -0.7857143339088662 0.6185895129163982
		outer loop
			vertex -13.5 23.38268661499024 133.38661193847656
			vertex -8.472455024719238 14.674723625183113 122.32601165771484
			vertex 8.472455024719238 14.674723625183113 122.32601165771484
		endloop
	endfacet
	facet normal 0 -0.992797264458747 -0.11980647596532061
		outer loop
			vertex 8.472455024719238 14.674723625183113 122.32601165771484
			vertex -8.472455024719238 14.674723625183113 122.32601165771484
			vertex 17.004785537719727 29.45315170288086 -0.13801084458828153
		endloop
	endfacet
	facet normal 0 -0.9927972644587469 -0.1198064759653206
		outer loop
			vertex -8.472455024719238 14.674723625183113 122.32601165771484
			vertex -17.004785537719727 29.45315170288086 -0.13801084458828153
			vertex 17.004785537719727 29.45315170288086 -0.13801084458828153
		endloop
	endfacet
	facet normal 0 0.15885798516392968 -0.9873014436076029
		outer loop
			vertex 17.004785537719727 29.45315170288086 -0.13801084458828153
			vertex -17.004785537719727 29.45315170288086 -0.13801084458828153
			vertex 17.5 30.310888290405273 -1.85600661620789e-15
		endloop
	endfacet
	facet normal 0 0.1588579851639297 -0.987301443607603
		outer loop
			vertex -17.004785537719727 29.45315170288086 -0.13801084458828153
			vertex -17.5 30.310888290405273 -1.85600661620789e-15
			vertex 17.5 30.310888290405273 -1.85600661620789e-15
		endloop
	endfacet
	facet normal 0 0.9927972651053729 0.11980647060694083
		outer loop
			vertex 17.5 30.310888290405273 -1.85600661620789e-15
			vertex -17.5 30.310888290405273 -1.85600661620789e-15
			vertex 9 15.588457107543952 122
		endloop
	endfacet
	facet normal 0 0.9927972651053729 0.11980647060694083
		outer loop
			vertex -17.5 30.310888290405273 -1.85600661620789e-15
			vertex -9 15.588457107543952 122
			vertex 9 15.588457107543952 122
		endloop
	endfacet
	facet normal 0 0.7857143035262105 -0.6185895515075583
		outer loop
			vertex 9 15.588457107543952 122
			vertex -9 15.588457107543952 122
			vertex 14 24.248710632324226 133
		endloop
	endfacet
	facet normal 0 0.7857143035262104 -0.6185895515075583
		outer loop
			vertex -9 15.588457107543952 122
			vertex -14 24.248710632324226 133
			vertex 14 24.248710632324226 133
		endloop
	endfacet
	facet normal 0 1 -6.123233995736766e-17
		outer loop
			vertex 14 24.248710632324226 133
			vertex -14 24.248710632324226 133
			vertex 14 24.248710632324226 136
		endloop
	endfacet
	facet normal 0 1 -6.123233995736766e-17
		outer loop
			vertex -14 24.248710632324226 133
			vertex -14 24.248710632324226 136
			vertex 14 24.248710632324226 136
		endloop
	endfacet
	facet normal 0 0.7559287511568114 -0.6546538957147536
		outer loop
			vertex 14 24.248710632324226 136
			vertex -14 24.248710632324226 136
			vertex 15 25.98076248168946 138
		endloop
	endfacet
	facet normal 0 0.7559287511568114 -0.6546538957147536
		outer loop
			vertex -14 24.248710632324226 136
			vertex -15 25.98076248168946 138
			vertex 15 25.98076248168946 138
		endloop
	endfacet
	facet normal 0 1 -6.123233995736766e-17
		outer loop
			vertex 15 25.98076248168946 138
			vertex -15 25.98076248168946 138
			vertex 15 25.98076248168946 140
		endloop
	endfacet
	facet normal 0 1 -6.123233995736766e-17
		outer loop
			vertex -15 25.98076248168946 138
			vertex -15 25.98076248168946 140
			vertex 15 25.98076248168946 140
		endloop
	endfacet
	facet normal 0 6.123233995736766e-17 1
		outer loop
			vertex 15 25.98076248168946 140
			vertex -15 25.98076248168946 140
			vertex 14 24.248710632324226 140
		endloop
	endfacet
	facet normal 0 6.123233995736766e-17 1
		outer loop
			vertex -15 25.98076248168946 140
			vertex -14 24.248710632324226 140
			vertex 14 24.248710632324226 140
		endloop
	endfacet
	facet normal 0 1 -6.123233995736766e-17
		outer loop
			vertex 14 24.248710632324226 140
			vertex -14 24.248710632324226 140
			vertex 14 24.248710632324226 145
		endloop
	endfacet
	facet normal 0 1 -6.123233995736766e-17
		outer loop
			vertex -14 24.248710632324226 140
			vertex -14 24.248710632324226 145
			vertex 14 24.248710632324226 145
		endloop
	endfacet
	facet normal 0 6.123233995736766e-17 1
		outer loop
			vertex 14 24.248710632324226 145
			vertex -14 24.248710632324226 145
			vertex 13 22.516660690307624 145
		endloop
	endfacet
	facet normal 0 6.123233995736766e-17 1
		outer loop
			vertex -14 24.248710632324226 145
			vertex -13 22.516660690307624 145
			vertex 13 22.516660690307624 145
		endloop
	endfacet
	facet normal 0 -1 6.123233995736766e-17
		outer loop
			vertex 13 22.516660690307624 145
			vertex -13 22.516660690307624 145
			vertex 13 22.516660690307624 140
		endloop
	endfacet
	facet normal 0 -1 6.123233995736766e-17
		outer loop
			vertex -13 22.516660690307624 145
			vertex -13 22.516660690307624 140
			vertex 13 22.516660690307624 140
		endloop
	endfacet
	facet normal 0 6.123233995736766e-17 1
		outer loop
			vertex 13 22.516660690307624 140
			vertex -13 22.516660690307624 140
			vertex 7.5 12.990381240844735 140
		endloop
	endfacet
	facet normal 0 6.123233995736766e-17 1
		outer loop
			vertex -13 22.516660690307624 140
			vertex -7.5 12.990381240844735 140
			vertex 7.5 12.990381240844735 140
		endloop
	endfacet
	facet normal 0 1 -6.123233995736766e-17
		outer loop
			vertex 7.5 12.990381240844735 140
			vertex -7.5 12.990381240844735 140
			vertex 7.5 12.990381240844737 160
		endloop
	endfacet
	facet normal 0 1 -6.123233995736766e-17
		outer loop
			vertex -7.5 12.990381240844735 140
			vertex -7.5 12.990381240844737 160
			vertex 7.5 12.990381240844737 160
		endloop
	endfacet
	facet normal 0 -6.123233995736766e-17 -1
		outer loop
			vertex 7.5 12.990381240844737 160
			vertex -7.5 12.990381240844737 160
			vertex 15 25.980762481689464 160
		endloop
	endfacet
	facet normal 0 -6.123233995736766e-17 -1
		outer loop
			vertex -7.5 12.990381240844737 160
			vertex -15 25.980762481689464 160
			vertex 15 25.980762481689464 160
		endloop
	endfacet
	facet normal 0 0.6099942759028989 0.7924058198711681
		outer loop
			vertex 15 25.980762481689464 160
			vertex -15 25.980762481689464 160
			vertex 0 1.1021821192326179e-14 180
		endloop
	endfacet
	facet normal -0.749999149421347 0.4330122036042508 -0.5000017073941317
		outer loop
			vertex 0 1.1021821192326179e-14 180
			vertex 0.5547001957893372 1.086897626448673e-14 179.16795349121094
			vertex 0.2773500978946686 -0.4803844690322766 179.16795349121094
		endloop
	endfacet
	facet normal -0.5282706252350797 0.3049971826087066 0.7924057452558564
		outer loop
			vertex 0.2773500978946686 -0.4803844690322766 179.16795349121094
			vertex 0.5547001957893372 1.086897626448673e-14 179.16795349121094
			vertex -13.348611831665039 23.120473861694347 161
		endloop
	endfacet
	facet normal 0.5282706213356622 -0.30499718597746317 -0.7924057465588337
		outer loop
			vertex 0.5547001957893372 1.086897626448673e-14 179.16795349121094
			vertex -26.697223663330078 1.476260721906008e-14 161
			vertex -13.348611831665039 23.120473861694347 161
		endloop
	endfacet
	facet normal 0 6.123233995736766e-17 1
		outer loop
			vertex -13.348611831665039 23.120473861694347 161
			vertex -26.697223663330078 1.476260721906008e-14 161
			vertex -7 12.12435531616212 161
		endloop
	endfacet
	facet normal 0 6.123233995736766e-17 1
		outer loop
			vertex -26.697223663330078 1.476260721906008e-14 161
			vertex -14 1.2430164991216148e-14 161
			vertex -7 12.12435531616212 161
		endloop
	endfacet
	facet normal 0.8660253977697949 -0.5000000104176682 3.0616170616582026e-17
		outer loop
			vertex -7 12.12435531616212 161
			vertex -14 1.2430164991216148e-14 161
			vertex -7 12.124355316162118 139
		endloop
	endfacet
	facet normal 0.8660253977697949 -0.5000000104176682 3.0616170616582026e-17
		outer loop
			vertex -14 1.2430164991216148e-14 161
			vertex -14 1.108305351215406e-14 139
			vertex -7 12.124355316162118 139
		endloop
	endfacet
	facet normal 0 -6.123233995736766e-17 -1
		outer loop
			vertex -7 12.124355316162118 139
			vertex -14 1.108305351215406e-14 139
			vertex -13.5 23.38268661499024 139
		endloop
	endfacet
	facet normal 0 -6.123233995736766e-17 -1
		outer loop
			vertex -14 1.108305351215406e-14 139
			vertex -27 1.3471114887930027e-14 139
			vertex -13.5 23.38268661499024 139
		endloop
	endfacet
	facet normal -0.8660254103845346 0.4999999885682983 -3.0616169278693985e-17
		outer loop
			vertex -13.5 23.38268661499024 139
			vertex -27 1.3471114887930027e-14 139
			vertex -13.5 23.38268661499024 144
		endloop
	endfacet
	facet normal -0.8660254103845346 0.4999999885682983 -3.0616169278693985e-17
		outer loop
			vertex -27 1.3471114887930027e-14 139
			vertex -27 1.3777276587716865e-14 144
			vertex -13.5 23.38268661499024 144
		endloop
	endfacet
	facet normal 0.8660254103845346 -0.4999999885682983 3.0616169278693985e-17
		outer loop
			vertex -13.5 23.38268661499024 144
			vertex -27 1.3777276587716865e-14 144
			vertex -13.5 23.38268661499024 139
		endloop
	endfacet
	facet normal 0.8660254103845346 -0.4999999885682983 3.0616169278693985e-17
		outer loop
			vertex -27 1.3777276587716865e-14 144
			vertex -27 1.3471114887930027e-14 139
			vertex -13.5 23.38268661499024 139
		endloop
	endfacet
	facet normal 0 -6.123233995736766e-17 -1
		outer loop
			vertex -13.5 23.38268661499024 139
			vertex -27 1.3471114887930027e-14 139
			vertex -14.5 25.114736557006843 139
		endloop
	endfacet
	facet normal 0 -6.123233995736766e-17 -1
		outer loop
			vertex -27 1.3471114887930027e-14 139
			vertex -29 1.3838508652538002e-14 139
			vertex -14.5 25.114736557006843 139
		endloop
	endfacet
	facet normal 0.8660254024676982 -0.5000000022806613 3.061617011833406e-17
		outer loop
			vertex -14.5 25.114736557006843 139
			vertex -29 1.3838508652538002e-14 139
			vertex -14.5 25.114736557006843 138.41421508789062
		endloop
	endfacet
	facet normal 0.8660254024676982 -0.5000000022806613 3.061617011833406e-17
		outer loop
			vertex -29 1.3838508652538002e-14 139
			vertex -29 1.3802639671657823e-14 138.41421508789062
			vertex -14.5 25.114736557006843 138.41421508789062
		endloop
	endfacet
	facet normal 0.6546537393891788 -0.3779645149610283 0.6546535778058805
		outer loop
			vertex -14.5 25.114736557006843 138.41421508789062
			vertex -29 1.3802639671657823e-14 138.41421508789062
			vertex -13.5 23.38268661499024 136.41421508789062
		endloop
	endfacet
	facet normal 0.6546536735589505 -0.37796446313316523 0.6546536735589507
		outer loop
			vertex -29 1.3802639671657823e-14 138.41421508789062
			vertex -27 1.3312781227135113e-14 136.41421508789062
			vertex -13.5 23.38268661499024 136.41421508789062
		endloop
	endfacet
	facet normal 0.8660254103845345 -0.4999999885682983 3.0616169278693985e-17
		outer loop
			vertex -13.5 23.38268661499024 136.41421508789062
			vertex -27 1.3312781227135113e-14 136.41421508789062
			vertex -13.5 23.38268661499024 133.38661193847656
		endloop
	endfacet
	facet normal 0.8660254103845345 -0.4999999885682983 3.0616169278693985e-17
		outer loop
			vertex -27 1.3312781227135113e-14 136.41421508789062
			vertex -27 1.3127394001834194e-14 133.38661193847656
			vertex -13.5 23.38268661499024 133.38661193847656
		endloop
	endfacet
	facet normal 0.6804485752991294 -0.3928571561425806 0.618589517564717
		outer loop
			vertex -13.5 23.38268661499024 133.38661193847656
			vertex -27 1.3127394001834194e-14 133.38661193847656
			vertex -8.472455024719238 14.674723625183113 122.32601165771484
		endloop
	endfacet
	facet normal 0.6804485705434048 -0.39285713706186126 0.6185895349139001
		outer loop
			vertex -27 1.3127394001834194e-14 133.38661193847656
			vertex -16.944910049438477 1.0603037545583421e-14 122.32601165771484
			vertex -8.472455024719238 14.674723625183113 122.32601165771484
		endloop
	endfacet
	facet normal 0.8597876667573158 -0.4963986050755187 -0.11980648134007726
		outer loop
			vertex -8.472455024719238 14.674723625183113 122.32601165771484
			vertex -16.944910049438477 1.0603037545583421e-14 122.32601165771484
			vertex -17.004785537719727 29.45315170288086 -0.13801084458828153
		endloop
	endfacet
	facet normal 0.8597876443605958 -0.4963986417420694 -0.1198064901475984
		outer loop
			vertex -16.944910049438477 1.0603037545583421e-14 122.32601165771484
			vertex -34.00957107543945 6.2390059469451735e-15 -0.13801084458827972
			vertex -17.004785537719727 29.45315170288086 -0.13801084458828153
		endloop
	endfacet
	facet normal -0.13757504715121208 0.07942899271860321 -0.9873014440975207
		outer loop
			vertex -17.004785537719727 29.45315170288086 -0.13801084458828153
			vertex -34.00957107543945 6.2390059469451735e-15 -0.13801084458827972
			vertex -17.5 30.310888290405273 -1.85600661620789e-15
		endloop
	endfacet
	facet normal -0.13757504731541986 0.07942899280790613 -0.9873014440674549
		outer loop
			vertex -34.00957107543945 6.2390059469451735e-15 -0.13801084458827972
			vertex -35 6.429395539320768e-15 -3.9368693338407243e-31
			vertex -17.5 30.310888290405273 -1.85600661620789e-15
		endloop
	endfacet
	facet normal -0.8597876460463134 0.49639864268093054 0.1198064741600773
		outer loop
			vertex -17.5 30.310888290405273 -1.85600661620789e-15
			vertex -35 6.429395539320768e-15 -3.9368693338407243e-31
			vertex -9 15.588457107543952 122
		endloop
	endfacet
	facet normal -0.8597876496353464 0.49639863607626156 0.11980647576885972
		outer loop
			vertex -35 6.429395539320768e-15 -3.9368693338407243e-31
			vertex -18 1.077689189736947e-14 122
			vertex -9 15.588457107543952 122
		endloop
	endfacet
	facet normal -0.6804485368348594 0.39285714995809573 -0.6185895638030935
		outer loop
			vertex -9 15.588457107543952 122
			vertex -18 1.077689189736947e-14 122
			vertex -14 24.248710632324226 133
		endloop
	endfacet
	facet normal -0.6804485286274632 0.3928571520864984 -0.6185895714795122
		outer loop
			vertex -18 1.077689189736947e-14 122
			vertex -28 1.3287417730489807e-14 133
			vertex -14 24.248710632324226 133
		endloop
	endfacet
	facet normal -0.8660253977697949 0.5000000104176683 -3.061617061658204e-17
		outer loop
			vertex -14 24.248710632324226 133
			vertex -28 1.3287417730489807e-14 133
			vertex -14 24.248710632324226 136
		endloop
	endfacet
	facet normal -0.8660253977697949 0.5000000104176683 -3.061617061658204e-17
		outer loop
			vertex -28 1.3287417730489807e-14 133
			vertex -28 1.347111475036191e-14 136
			vertex -14 24.248710632324226 136
		endloop
	endfacet
	facet normal -0.6546535798352013 0.3779644310438269 -0.6546537858094703
		outer loop
			vertex -14 24.248710632324226 136
			vertex -28 1.347111475036191e-14 136
			vertex -15 25.98076248168946 138
		endloop
	endfacet
	facet normal -0.6546536720332152 0.377964468418468 -0.6546536720332153
		outer loop
			vertex -28 1.347111475036191e-14 136
			vertex -30 1.3960973618401095e-14 138
			vertex -15 25.98076248168946 138
		endloop
	endfacet
	facet normal -0.8660254068524077 0.4999999946861218 -3.061616965330263e-17
		outer loop
			vertex -15 25.98076248168946 138
			vertex -30 1.3960973618401095e-14 138
			vertex -15 25.98076248168946 140
		endloop
	endfacet
	facet normal -0.8660254068524077 0.4999999946861218 -3.061616965330263e-17
		outer loop
			vertex -30 1.3960973618401095e-14 138
			vertex -30 1.408343829831583e-14 140
			vertex -15 25.98076248168946 140
		endloop
	endfacet
	facet normal 0 6.123233995736766e-17 1
		outer loop
			vertex -15 25.98076248168946 140
			vertex -30 1.408343829831583e-14 140
			vertex -14 24.248710632324226 140
		endloop
	endfacet
	facet normal 0 6.123233995736766e-17 1
		outer loop
			vertex -30 1.408343829831583e-14 140
			vertex -28 1.3716044110191382e-14 140
			vertex -14 24.248710632324226 140
		endloop
	endfacet
	facet normal -0.866025397769795 0.5000000104176682 -3.0616170616582026e-17
		outer loop
			vertex -14 24.248710632324226 140
			vertex -28 1.3716044110191382e-14 140
			vertex -14 24.248710632324226 145
		endloop
	endfacet
	facet normal -0.866025397769795 0.5000000104176682 -3.0616170616582026e-17
		outer loop
			vertex -28 1.3716044110191382e-14 140
			vertex -28 1.402220580997822e-14 145
			vertex -14 24.248710632324226 145
		endloop
	endfacet
	facet normal 0 6.123233995736766e-17 1
		outer loop
			vertex -14 24.248710632324226 145
			vertex -28 1.402220580997822e-14 145
			vertex -13 22.516660690307624 145
		endloop
	endfacet
	facet normal 0 6.123233995736766e-17 1
		outer loop
			vertex -28 1.402220580997822e-14 145
			vertex -26 1.3654811621853771e-14 145
			vertex -13 22.516660690307624 145
		endloop
	endfacet
	facet normal 0.8660254056297484 -0.4999999968038299 3.0616169782974854e-17
		outer loop
			vertex -13 22.516660690307624 145
			vertex -26 1.3654811621853771e-14 145
			vertex -13 22.516660690307624 140
		endloop
	endfacet
	facet normal 0.8660254056297484 -0.4999999968038299 3.0616169782974854e-17
		outer loop
			vertex -26 1.3654811621853771e-14 145
			vertex -26 1.3348649922066934e-14 140
			vertex -13 22.516660690307624 140
		endloop
	endfacet
	facet normal 0 6.123233995736766e-17 1
		outer loop
			vertex -13 22.516660690307624 140
			vertex -26 1.3348649922066934e-14 140
			vertex -7.5 12.990381240844735 140
		endloop
	endfacet
	facet normal 0 6.123233995736766e-17 1
		outer loop
			vertex -26 1.3348649922066934e-14 140
			vertex -15 1.1327982946173652e-14 140
			vertex -7.5 12.990381240844735 140
		endloop
	endfacet
	facet normal -0.8660254068524078 0.49999999468612183 -3.061616965330264e-17
		outer loop
			vertex -7.5 12.990381240844735 140
			vertex -15 1.1327982946173652e-14 140
			vertex -7.5 12.990381240844737 160
		endloop
	endfacet
	facet normal -0.8660254068524078 0.49999999468612183 -3.061616965330264e-17
		outer loop
			vertex -15 1.1327982946173652e-14 140
			vertex -15 1.2552629745321005e-14 160
			vertex -7.5 12.990381240844737 160
		endloop
	endfacet
	facet normal 0 -6.123233995736766e-17 -1
		outer loop
			vertex -7.5 12.990381240844737 160
			vertex -15 1.2552629745321005e-14 160
			vertex -15 25.980762481689464 160
		endloop
	endfacet
	facet normal 0 -6.123233995736766e-17 -1
		outer loop
			vertex -15 1.2552629745321005e-14 160
			vertex -30 1.5308085097463182e-14 160
			vertex -15 25.980762481689464 160
		endloop
	endfacet
	facet normal -0.5282705444917254 0.30499713674533413 0.7924058167375881
		outer loop
			vertex -15 25.980762481689464 160
			vertex -30 1.5308085097463182e-14 160
			vertex 0 1.1021821192326179e-14 180
		endloop
	endfacet
	facet normal -0.7499991494213473 -0.43301220360425074 -0.5000017073941316
		outer loop
			vertex 0 1.1021821192326179e-14 180
			vertex 0.2773500978946686 0.4803844690322986 179.16795349121094
			vertex 0.5547001957893372 1.086897626448673e-14 179.16795349121094
		endloop
	endfacet
	facet normal -0.5282706222411764 -0.3049971808801755 0.7924057479171045
		outer loop
			vertex 0.5547001957893372 1.086897626448673e-14 179.16795349121094
			vertex 0.2773500978946686 0.4803844690322986 179.16795349121094
			vertex -26.697223663330078 1.476260721906008e-14 161
		endloop
	endfacet
	facet normal 0.5282706212734565 0.30499718594154857 -0.7924057466141275
		outer loop
			vertex 0.2773500978946686 0.4803844690322986 179.16795349121094
			vertex -13.348611831665039 -23.120473861694325 161
			vertex -26.697223663330078 1.476260721906008e-14 161
		endloop
	endfacet
	facet normal 0 6.123233995736766e-17 1
		outer loop
			vertex -26.697223663330078 1.476260721906008e-14 161
			vertex -13.348611831665039 -23.120473861694325 161
			vertex -14 1.2430164991216148e-14 161
		endloop
	endfacet
	facet normal 0 6.123233995736766e-17 1
		outer loop
			vertex -13.348611831665039 -23.120473861694325 161
			vertex -7 -12.124355316162099 161
			vertex -14 1.2430164991216148e-14 161
		endloop
	endfacet
	facet normal 0.8660253977697951 0.5000000104176682 -3.0616170616582026e-17
		outer loop
			vertex -14 1.2430164991216148e-14 161
			vertex -7 -12.124355316162099 161
			vertex -14 1.108305351215406e-14 139
		endloop
	endfacet
	facet normal 0.8660253977697951 0.5000000104176682 -3.0616170616582026e-17
		outer loop
			vertex -7 -12.124355316162099 161
			vertex -7 -12.1243553161621 139
			vertex -14 1.108305351215406e-14 139
		endloop
	endfacet
	facet normal 0 -6.123233995736766e-17 -1
		outer loop
			vertex -14 1.108305351215406e-14 139
			vertex -7 -12.1243553161621 139
			vertex -27 1.3471114887930027e-14 139
		endloop
	endfacet
	facet normal 0 -6.123233995736766e-17 -1
		outer loop
			vertex -7 -12.1243553161621 139
			vertex -13.5 -23.382686614990227 139
			vertex -27 1.3471114887930027e-14 139
		endloop
	endfacet
	facet normal -0.8660254103845346 -0.4999999885682982 3.061616927869398e-17
		outer loop
			vertex -27 1.3471114887930027e-14 139
			vertex -13.5 -23.382686614990227 139
			vertex -27 1.3777276587716865e-14 144
		endloop
	endfacet
	facet normal -0.8660254103845346 -0.4999999885682982 3.061616927869398e-17
		outer loop
			vertex -13.5 -23.382686614990227 139
			vertex -13.5 -23.382686614990227 144
			vertex -27 1.3777276587716865e-14 144
		endloop
	endfacet
	facet normal 0.8660254103845346 0.4999999885682982 -3.061616927869398e-17
		outer loop
			vertex -27 1.3777276587716865e-14 144
			vertex -13.5 -23.382686614990227 144
			vertex -27 1.3471114887930027e-14 139
		endloop
	endfacet
	facet normal 0.8660254103845346 0.4999999885682982 -3.061616927869398e-17
		outer loop
			vertex -13.5 -23.382686614990227 144
			vertex -13.5 -23.382686614990227 139
			vertex -27 1.3471114887930027e-14 139
		endloop
	endfacet
	facet normal 0 -6.123233995736766e-17 -1
		outer loop
			vertex -27 1.3471114887930027e-14 139
			vertex -13.5 -23.382686614990227 139
			vertex -29 1.3838508652538002e-14 139
		endloop
	endfacet
	facet normal 0 -6.123233995736766e-17 -1
		outer loop
			vertex -13.5 -23.382686614990227 139
			vertex -14.5 -25.11473655700683 139
			vertex -29 1.3838508652538002e-14 139
		endloop
	endfacet
	facet normal 0.8660254024676983 0.5000000022806612 -3.061617011833405e-17
		outer loop
			vertex -29 1.3838508652538002e-14 139
			vertex -14.5 -25.11473655700683 139
			vertex -29 1.3802639671657823e-14 138.41421508789062
		endloop
	endfacet
	facet normal 0.8660254024676983 0.5000000022806612 -3.061617011833405e-17
		outer loop
			vertex -14.5 -25.11473655700683 139
			vertex -14.5 -25.11473655700683 138.41421508789062
			vertex -29 1.3802639671657823e-14 138.41421508789062
		endloop
	endfacet
	facet normal 0.6546536701391988 0.3779644749795334 0.6546536701391987
		outer loop
			vertex -29 1.3802639671657823e-14 138.41421508789062
			vertex -14.5 -25.11473655700683 138.41421508789062
			vertex -27 1.3312781227135113e-14 136.41421508789062
		endloop
	endfacet
	facet normal 0.6546537479385575 0.37796450607625 0.6546535743861298
		outer loop
			vertex -14.5 -25.11473655700683 138.41421508789062
			vertex -13.5 -23.382686614990227 136.41421508789062
			vertex -27 1.3312781227135113e-14 136.41421508789062
		endloop
	endfacet
	facet normal 0.8660254103845347 0.49999998856829825 -3.061616927869398e-17
		outer loop
			vertex -27 1.3312781227135113e-14 136.41421508789062
			vertex -13.5 -23.382686614990227 136.41421508789062
			vertex -27 1.3127394001834194e-14 133.38661193847656
		endloop
	endfacet
	facet normal 0.8660254103845347 0.49999998856829825 -3.061616927869398e-17
		outer loop
			vertex -13.5 -23.382686614990227 136.41421508789062
			vertex -13.5 -23.382686614990227 133.38661193847656
			vertex -27 1.3127394001834194e-14 133.38661193847656
		endloop
	endfacet
	facet normal 0.6804485661767475 0.39285715087577106 0.618589530944212
		outer loop
			vertex -27 1.3127394001834194e-14 133.38661193847656
			vertex -13.5 -23.382686614990227 133.38661193847656
			vertex -16.944910049438477 1.0603037545583421e-14 122.32601165771484
		endloop
	endfacet
	facet normal 0.6804485850789974 0.392857145453989 0.6185895135950286
		outer loop
			vertex -13.5 -23.382686614990227 133.38661193847656
			vertex -8.472455024719238 -14.674723625183098 122.32601165771484
			vertex -16.944910049438477 1.0603037545583421e-14 122.32601165771484
		endloop
	endfacet
	facet normal 0.8597876655285961 0.4963986043661169 -0.11980649309723818
		outer loop
			vertex -16.944910049438477 1.0603037545583421e-14 122.32601165771484
			vertex -8.472455024719238 -14.674723625183098 122.32601165771484
			vertex -34.00957107543945 6.2390059469451735e-15 -0.13801084458827972
		endloop
	endfacet
	facet normal 0.8597876449727926 0.4963986420955211 -0.11980648428971659
		outer loop
			vertex -8.472455024719238 -14.674723625183098 122.32601165771484
			vertex -17.004785537719727 -29.45315170288086 -0.13801084458827792
			vertex -34.00957107543945 6.2390059469451735e-15 -0.13801084458827972
		endloop
	endfacet
	facet normal -0.13757504731535977 -0.07942899281337401 -0.9873014440670234
		outer loop
			vertex -34.00957107543945 6.2390059469451735e-15 -0.13801084458827972
			vertex -17.004785537719727 -29.45315170288086 -0.13801084458827792
			vertex -35 6.429395539320768e-15 -3.9368693338407243e-31
		endloop
	endfacet
	facet normal -0.1375750471559173 -0.07942899271581735 -0.9873014440970892
		outer loop
			vertex -17.004785537719727 -29.45315170288086 -0.13801084458827792
			vertex -17.5 -30.310888290405273 1.85600661620789e-15
			vertex -35 6.429395539320768e-15 -3.9368693338407243e-31
		endloop
	endfacet
	facet normal -0.8597876459321113 -0.49639864261499567 0.1198064752528352
		outer loop
			vertex -35 6.429395539320768e-15 -3.9368693338407243e-31
			vertex -17.5 -30.310888290405273 1.85600661620789e-15
			vertex -18 1.077689189736947e-14 122
		endloop
	endfacet
	facet normal -0.8597876498574061 -0.49639863620446756 0.11980647364405281
		outer loop
			vertex -17.5 -30.310888290405273 1.85600661620789e-15
			vertex -9 -15.588457107543938 122
			vertex -18 1.077689189736947e-14 122
		endloop
	endfacet
	facet normal -0.6804485304631287 -0.3928571462793753 -0.6185895731482988
		outer loop
			vertex -18 1.077689189736947e-14 122
			vertex -9 -15.588457107543938 122
			vertex -28 1.3287417730489807e-14 133
		endloop
	endfacet
	facet normal -0.680448532723576 -0.39285715445139024 -0.6185895654718799
		outer loop
			vertex -9 -15.588457107543938 122
			vertex -14 -24.24871063232421 133
			vertex -28 1.3287417730489807e-14 133
		endloop
	endfacet
	facet normal -0.866025397769795 -0.5000000104176681 3.061617061658202e-17
		outer loop
			vertex -28 1.3287417730489807e-14 133
			vertex -14 -24.24871063232421 133
			vertex -28 1.347111475036191e-14 136
		endloop
	endfacet
	facet normal -0.866025397769795 -0.5000000104176681 3.061617061658202e-17
		outer loop
			vertex -14 -24.24871063232421 133
			vertex -14 -24.24871063232421 136
			vertex -28 1.347111475036191e-14 136
		endloop
	endfacet
	facet normal -0.6546536681098957 -0.37796448200924687 -0.6546536681098949
		outer loop
			vertex -28 1.347111475036191e-14 136
			vertex -14 -24.24871063232421 136
			vertex -30 1.3960973618401095e-14 138
		endloop
	endfacet
	facet normal -0.6546535896435027 -0.3779644208507459 -0.6546537818861484
		outer loop
			vertex -14 -24.24871063232421 136
			vertex -15 -25.980762481689446 138
			vertex -30 1.3960973618401095e-14 138
		endloop
	endfacet
	facet normal -0.8660254068524078 -0.4999999946861216 3.061616965330262e-17
		outer loop
			vertex -30 1.3960973618401095e-14 138
			vertex -15 -25.980762481689446 138
			vertex -30 1.408343829831583e-14 140
		endloop
	endfacet
	facet normal -0.8660254068524078 -0.4999999946861216 3.061616965330262e-17
		outer loop
			vertex -15 -25.980762481689446 138
			vertex -15 -25.980762481689446 140
			vertex -30 1.408343829831583e-14 140
		endloop
	endfacet
	facet normal 0 6.123233995736766e-17 1
		outer loop
			vertex -30 1.408343829831583e-14 140
			vertex -15 -25.980762481689446 140
			vertex -28 1.3716044110191382e-14 140
		endloop
	endfacet
	facet normal 0 6.123233995736766e-17 1
		outer loop
			vertex -15 -25.980762481689446 140
			vertex -14 -24.24871063232421 140
			vertex -28 1.3716044110191382e-14 140
		endloop
	endfacet
	facet normal -0.8660253977697951 -0.5000000104176682 3.0616170616582026e-17
		outer loop
			vertex -28 1.3716044110191382e-14 140
			vertex -14 -24.24871063232421 140
			vertex -28 1.402220580997822e-14 145
		endloop
	endfacet
	facet normal -0.8660253977697951 -0.5000000104176682 3.0616170616582026e-17
		outer loop
			vertex -14 -24.24871063232421 140
			vertex -14 -24.24871063232421 145
			vertex -28 1.402220580997822e-14 145
		endloop
	endfacet
	facet normal 0 6.123233995736766e-17 1
		outer loop
			vertex -28 1.402220580997822e-14 145
			vertex -14 -24.24871063232421 145
			vertex -26 1.3654811621853771e-14 145
		endloop
	endfacet
	facet normal 0 6.123233995736766e-17 1
		outer loop
			vertex -14 -24.24871063232421 145
			vertex -13 -22.51666069030761 145
			vertex -26 1.3654811621853771e-14 145
		endloop
	endfacet
	facet normal 0.8660254056297485 0.4999999968038298 -3.061616978297485e-17
		outer loop
			vertex -26 1.3654811621853771e-14 145
			vertex -13 -22.51666069030761 145
			vertex -26 1.3348649922066934e-14 140
		endloop
	endfacet
	facet normal 0.8660254056297485 0.4999999968038298 -3.061616978297485e-17
		outer loop
			vertex -13 -22.51666069030761 145
			vertex -13 -22.51666069030761 140
			vertex -26 1.3348649922066934e-14 140
		endloop
	endfacet
	facet normal 0 6.123233995736766e-17 1
		outer loop
			vertex -26 1.3348649922066934e-14 140
			vertex -13 -22.51666069030761 140
			vertex -15 1.1327982946173652e-14 140
		endloop
	endfacet
	facet normal 0 6.123233995736766e-17 1
		outer loop
			vertex -13 -22.51666069030761 140
			vertex -7.5 -12.990381240844718 140
			vertex -15 1.1327982946173652e-14 140
		endloop
	endfacet
	facet normal -0.8660254068524078 -0.4999999946861216 3.061616965330262e-17
		outer loop
			vertex -15 1.1327982946173652e-14 140
			vertex -7.5 -12.990381240844718 140
			vertex -15 1.2552629745321005e-14 160
		endloop
	endfacet
	facet normal -0.8660254068524078 -0.4999999946861216 3.061616965330262e-17
		outer loop
			vertex -7.5 -12.990381240844718 140
			vertex -7.5 -12.990381240844716 160
			vertex -15 1.2552629745321005e-14 160
		endloop
	endfacet
	facet normal 0 -6.123233995736766e-17 -1
		outer loop
			vertex -15 1.2552629745321005e-14 160
			vertex -7.5 -12.990381240844716 160
			vertex -30 1.5308085097463182e-14 160
		endloop
	endfacet
	facet normal 0 -6.123233995736766e-17 -1
		outer loop
			vertex -7.5 -12.990381240844716 160
			vertex -15 -25.980762481689442 160
			vertex -30 1.5308085097463182e-14 160
		endloop
	endfacet
	facet normal -0.5282705444917254 -0.30499713674533385 0.792405816737588
		outer loop
			vertex -30 1.5308085097463182e-14 160
			vertex -15 -25.980762481689442 160
			vertex 0 1.1021821192326179e-14 180
		endloop
	endfacet
	facet normal 0 -0.8660244153154067 -0.5000017120746769
		outer loop
			vertex 0 1.1021821192326179e-14 180
			vertex -0.2773500978946686 0.4803844690322986 179.16795349121094
			vertex 0.2773500978946686 0.4803844690322986 179.16795349121094
		endloop
	endfacet
	facet normal 0 -0.6099943715074463 0.7924057462747451
		outer loop
			vertex 0.2773500978946686 0.4803844690322986 179.16795349121094
			vertex -0.2773500978946686 0.4803844690322986 179.16795349121094
			vertex -13.348611831665039 -23.120473861694325 161
		endloop
	endfacet
	facet normal 0 0.6099943715074463 -0.7924057462747452
		outer loop
			vertex -0.2773500978946686 0.4803844690322986 179.16795349121094
			vertex 13.348611831665039 -23.120473861694325 161
			vertex -13.348611831665039 -23.120473861694325 161
		endloop
	endfacet
	facet normal 0 6.123233995736766e-17 1
		outer loop
			vertex -13.348611831665039 -23.120473861694325 161
			vertex 13.348611831665039 -23.120473861694325 161
			vertex -7 -12.124355316162099 161
		endloop
	endfacet
	facet normal 0 6.123233995736766e-17 1
		outer loop
			vertex 13.348611831665039 -23.120473861694325 161
			vertex 7 -12.124355316162099 161
			vertex -7 -12.124355316162099 161
		endloop
	endfacet
	facet normal 0 1 -6.123233995736766e-17
		outer loop
			vertex -7 -12.124355316162099 161
			vertex 7 -12.124355316162099 161
			vertex -7 -12.1243553161621 139
		endloop
	endfacet
	facet normal 0 1 -6.123233995736766e-17
		outer loop
			vertex 7 -12.124355316162099 161
			vertex 7 -12.1243553161621 139
			vertex -7 -12.1243553161621 139
		endloop
	endfacet
	facet normal 0 -6.123233995736766e-17 -1
		outer loop
			vertex -7 -12.1243553161621 139
			vertex 7 -12.1243553161621 139
			vertex -13.5 -23.382686614990227 139
		endloop
	endfacet
	facet normal 0 -6.123233995736766e-17 -1
		outer loop
			vertex 7 -12.1243553161621 139
			vertex 13.5 -23.382686614990227 139
			vertex -13.5 -23.382686614990227 139
		endloop
	endfacet
	facet normal 0 -1 6.123233995736766e-17
		outer loop
			vertex -13.5 -23.382686614990227 139
			vertex 13.5 -23.382686614990227 139
			vertex -13.5 -23.382686614990227 144
		endloop
	endfacet
	facet normal 0 -1 6.123233995736766e-17
		outer loop
			vertex 13.5 -23.382686614990227 139
			vertex 13.5 -23.382686614990227 144
			vertex -13.5 -23.382686614990227 144
		endloop
	endfacet
	facet normal 0 1 -6.123233995736766e-17
		outer loop
			vertex -13.5 -23.382686614990227 144
			vertex 13.5 -23.382686614990227 144
			vertex -13.5 -23.382686614990227 139
		endloop
	endfacet
	facet normal 0 1 -6.123233995736766e-17
		outer loop
			vertex 13.5 -23.382686614990227 144
			vertex 13.5 -23.382686614990227 139
			vertex -13.5 -23.382686614990227 139
		endloop
	endfacet
	facet normal 0 -6.123233995736766e-17 -1
		outer loop
			vertex -13.5 -23.382686614990227 139
			vertex 13.5 -23.382686614990227 139
			vertex -14.5 -25.11473655700683 139
		endloop
	endfacet
	facet normal 0 -6.123233995736766e-17 -1
		outer loop
			vertex 13.5 -23.382686614990227 139
			vertex 14.5 -25.11473655700683 139
			vertex -14.5 -25.11473655700683 139
		endloop
	endfacet
	facet normal 0 1 -6.123233995736766e-17
		outer loop
			vertex -14.5 -25.11473655700683 139
			vertex 14.5 -25.11473655700683 139
			vertex -14.5 -25.11473655700683 138.41421508789062
		endloop
	endfacet
	facet normal 0 1 -6.123233995736766e-17
		outer loop
			vertex 14.5 -25.11473655700683 139
			vertex 14.5 -25.11473655700683 138.41421508789062
			vertex -14.5 -25.11473655700683 138.41421508789062
		endloop
	endfacet
	facet normal 0 0.7559291079147444 0.6546534837661973
		outer loop
			vertex -14.5 -25.11473655700683 138.41421508789062
			vertex 14.5 -25.11473655700683 138.41421508789062
			vertex -13.5 -23.382686614990227 136.41421508789062
		endloop
	endfacet
	facet normal 0 0.7559291079147444 0.6546534837661971
		outer loop
			vertex 14.5 -25.11473655700683 138.41421508789062
			vertex 13.5 -23.382686614990227 136.41421508789062
			vertex -13.5 -23.382686614990227 136.41421508789062
		endloop
	endfacet
	facet normal 0 1 -6.123233995736766e-17
		outer loop
			vertex -13.5 -23.382686614990227 136.41421508789062
			vertex 13.5 -23.382686614990227 136.41421508789062
			vertex -13.5 -23.382686614990227 133.38661193847656
		endloop
	endfacet
	facet normal 0 1 -6.123233995736766e-17
		outer loop
			vertex 13.5 -23.382686614990227 136.41421508789062
			vertex 13.5 -23.382686614990227 133.38661193847656
			vertex -13.5 -23.382686614990227 133.38661193847656
		endloop
	endfacet
	facet normal 0 0.7857143339088664 0.6185895129163982
		outer loop
			vertex -13.5 -23.382686614990227 133.38661193847656
			vertex 13.5 -23.382686614990227 133.38661193847656
			vertex -8.472455024719238 -14.674723625183098 122.32601165771484
		endloop
	endfacet
	facet normal 0 0.7857143339088662 0.6185895129163982
		outer loop
			vertex 13.5 -23.382686614990227 133.38661193847656
			vertex 8.472455024719238 -14.674723625183098 122.32601165771484
			vertex -8.472455024719238 -14.674723625183098 122.32601165771484
		endloop
	endfacet
	facet normal 0 0.992797264458747 -0.11980647596532072
		outer loop
			vertex -8.472455024719238 -14.674723625183098 122.32601165771484
			vertex 8.472455024719238 -14.674723625183098 122.32601165771484
			vertex -17.004785537719727 -29.45315170288086 -0.13801084458827792
		endloop
	endfacet
	facet normal 0 0.9927972644587469 -0.11980647596532071
		outer loop
			vertex 8.472455024719238 -14.674723625183098 122.32601165771484
			vertex 17.004785537719727 -29.45315170288086 -0.13801084458827792
			vertex -17.004785537719727 -29.45315170288086 -0.13801084458827792
		endloop
	endfacet
	facet normal 0 -0.1588579851639298 -0.9873014436076029
		outer loop
			vertex -17.004785537719727 -29.45315170288086 -0.13801084458827792
			vertex 17.004785537719727 -29.45315170288086 -0.13801084458827792
			vertex -17.5 -30.310888290405273 1.85600661620789e-15
		endloop
	endfacet
	facet normal 0 -0.15885798516392982 -0.987301443607603
		outer loop
			vertex 17.004785537719727 -29.45315170288086 -0.13801084458827792
			vertex 17.5 -30.310888290405273 1.85600661620789e-15
			vertex -17.5 -30.310888290405273 1.85600661620789e-15
		endloop
	endfacet
	facet normal 0 -0.9927972651053729 0.11980647060694094
		outer loop
			vertex -17.5 -30.310888290405273 1.85600661620789e-15
			vertex 17.5 -30.310888290405273 1.85600661620789e-15
			vertex -9 -15.588457107543938 122
		endloop
	endfacet
	facet normal 0 -0.9927972651053729 0.11980647060694094
		outer loop
			vertex 17.5 -30.310888290405273 1.85600661620789e-15
			vertex 9 -15.588457107543938 122
			vertex -9 -15.588457107543938 122
		endloop
	endfacet
	facet normal 0 -0.7857143035262105 -0.6185895515075583
		outer loop
			vertex -9 -15.588457107543938 122
			vertex 9 -15.588457107543938 122
			vertex -14 -24.24871063232421 133
		endloop
	endfacet
	facet normal 0 -0.7857143035262104 -0.6185895515075583
		outer loop
			vertex 9 -15.588457107543938 122
			vertex 14 -24.24871063232421 133
			vertex -14 -24.24871063232421 133
		endloop
	endfacet
	facet normal 0 -1 6.123233995736766e-17
		outer loop
			vertex -14 -24.24871063232421 133
			vertex 14 -24.24871063232421 133
			vertex -14 -24.24871063232421 136
		endloop
	endfacet
	facet normal 0 -1 6.123233995736766e-17
		outer loop
			vertex 14 -24.24871063232421 133
			vertex 14 -24.24871063232421 136
			vertex -14 -24.24871063232421 136
		endloop
	endfacet
	facet normal 0 -0.7559287511568114 -0.6546538957147536
		outer loop
			vertex -14 -24.24871063232421 136
			vertex 14 -24.24871063232421 136
			vertex -15 -25.980762481689446 138
		endloop
	endfacet
	facet normal 0 -0.7559287511568114 -0.6546538957147536
		outer loop
			vertex 14 -24.24871063232421 136
			vertex 15 -25.980762481689446 138
			vertex -15 -25.980762481689446 138
		endloop
	endfacet
	facet normal 0 -1 6.123233995736766e-17
		outer loop
			vertex -15 -25.980762481689446 138
			vertex 15 -25.980762481689446 138
			vertex -15 -25.980762481689446 140
		endloop
	endfacet
	facet normal 0 -1 6.123233995736766e-17
		outer loop
			vertex 15 -25.980762481689446 138
			vertex 15 -25.980762481689446 140
			vertex -15 -25.980762481689446 140
		endloop
	endfacet
	facet normal 0 6.123233995736766e-17 1
		outer loop
			vertex -15 -25.980762481689446 140
			vertex 15 -25.980762481689446 140
			vertex -14 -24.24871063232421 140
		endloop
	endfacet
	facet normal 0 6.123233995736766e-17 1
		outer loop
			vertex 15 -25.980762481689446 140
			vertex 14 -24.24871063232421 140
			vertex -14 -24.24871063232421 140
		endloop
	endfacet
	facet normal 0 -1 6.123233995736766e-17
		outer loop
			vertex -14 -24.24871063232421 140
			vertex 14 -24.24871063232421 140
			vertex -14 -24.24871063232421 145
		endloop
	endfacet
	facet normal 0 -1 6.123233995736766e-17
		outer loop
			vertex 14 -24.24871063232421 140
			vertex 14 -24.24871063232421 145
			vertex -14 -24.24871063232421 145
		endloop
	endfacet
	facet normal 0 6.123233995736766e-17 1
		outer loop
			vertex -14 -24.24871063232421 145
			vertex 14 -24.24871063232421 145
			vertex -13 -22.51666069030761 145
		endloop
	endfacet
	facet normal 0 6.123233995736766e-17 1
		outer loop
			vertex 14 -24.24871063232421 145
			vertex 13 -22.51666069030761 145
			vertex -13 -22.51666069030761 145
		endloop
	endfacet
	facet normal 0 1 -6.123233995736766e-17
		outer loop
			vertex -13 -22.51666069030761 145
			vertex 13 -22.51666069030761 145
			vertex -13 -22.51666069030761 140
		endloop
	endfacet
	facet normal 0 1 -6.123233995736766e-17
		outer loop
			vertex 13 -22.51666069030761 145
			vertex 13 -22.51666069030761 140
			vertex -13 -22.51666069030761 140
		endloop
	endfacet
	facet normal 0 6.123233995736766e-17 1
		outer loop
			vertex -13 -22.51666069030761 140
			vertex 13 -22.51666069030761 140
			vertex -7.5 -12.990381240844718 140
		endloop
	endfacet
	facet normal 0 6.123233995736766e-17 1
		outer loop
			vertex 13 -22.51666069030761 140
			vertex 7.5 -12.990381240844718 140
			vertex -7.5 -12.990381240844718 140
		endloop
	endfacet
	facet normal 0 -1 6.123233995736766e-17
		outer loop
			vertex -7.5 -12.990381240844718 140
			vertex 7.5 -12.990381240844718 140
			vertex -7.5 -12.990381240844716 160
		endloop
	endfacet
	facet normal 0 -1 6.123233995736766e-17
		outer loop
			vertex 7.5 -12.990381240844718 140
			vertex 7.5 -12.990381240844716 160
			vertex -7.5 -12.990381240844716 160
		endloop
	endfacet
	facet normal 0 -6.123233995736766e-17 -1
		outer loop
			vertex -7.5 -12.990381240844716 160
			vertex 7.5 -12.990381240844716 160
			vertex -15 -25.980762481689442 160
		endloop
	endfacet
	facet normal 0 -6.123233995736766e-17 -1
		outer loop
			vertex 7.5 -12.990381240844716 160
			vertex 15 -25.980762481689442 160
			vertex -15 -25.980762481689442 160
		endloop
	endfacet
	facet normal 0 -0.6099942759028989 0.7924058198711681
		outer loop
			vertex -15 -25.980762481689442 160
			vertex 15 -25.980762481689442 160
			vertex 0 1.1021821192326179e-14 180
		endloop
	endfacet
	facet normal 0.749999149421347 -0.4330122036042509 -0.5000017073941316
		outer loop
			vertex 0 1.1021821192326179e-14 180
			vertex -0.5547001957893372 1.1004838628690646e-14 179.16795349121094
			vertex -0.2773500978946686 0.4803844690322986 179.16795349121094
		endloop
	endfacet
	facet normal 0.5282706252350797 -0.30499718260870656 0.7924057452558565
		outer loop
			vertex -0.2773500978946686 0.4803844690322986 179.16795349121094
			vertex -0.5547001957893372 1.1004838628690646e-14 179.16795349121094
			vertex 13.348611831665039 -23.120473861694325 161
		endloop
	endfacet
	facet normal -0.5282706213356622 0.3049971859774631 -0.7924057465588337
		outer loop
			vertex -0.5547001957893372 1.1004838628690646e-14 179.16795349121094
			vertex 26.697223663330078 8.223673167242152e-15 161
			vertex 13.348611831665039 -23.120473861694325 161
		endloop
	endfacet
	facet normal 0 6.123233995736766e-17 1
		outer loop
			vertex 13.348611831665039 -23.120473861694325 161
			vertex 26.697223663330078 8.223673167242152e-15 161
			vertex 7 -12.124355316162099 161
		endloop
	endfacet
	facet normal 0 6.123233995736766e-17 1
		outer loop
			vertex 26.697223663330078 8.223673167242152e-15 161
			vertex 14 9.001153962796356e-15 161
			vertex 7 -12.124355316162099 161
		endloop
	endfacet
	facet normal -0.8660253977697949 0.5000000104176682 -3.0616170616582026e-17
		outer loop
			vertex 7 -12.124355316162099 161
			vertex 14 9.001153962796356e-15 161
			vertex 7 -12.1243553161621 139
		endloop
	endfacet
	facet normal -0.8660253977697949 0.5000000104176682 -3.0616170616582026e-17
		outer loop
			vertex 14 9.001153962796356e-15 161
			vertex 14 7.654042483734268e-15 139
			vertex 7 -12.1243553161621 139
		endloop
	endfacet
	facet normal 0 -6.123233995736766e-17 -1
		outer loop
			vertex 7 -12.1243553161621 139
			vertex 14 7.654042483734268e-15 139
			vertex 13.5 -23.382686614990227 139
		endloop
	endfacet
	facet normal 0 -6.123233995736766e-17 -1
		outer loop
			vertex 14 7.654042483734268e-15 139
			vertex 27 6.858022042788798e-15 139
			vertex 13.5 -23.382686614990227 139
		endloop
	endfacet
	facet normal 0.8660254103845345 -0.4999999885682983 3.0616169278693985e-17
		outer loop
			vertex 13.5 -23.382686614990227 139
			vertex 27 6.858022042788798e-15 139
			vertex 13.5 -23.382686614990227 144
		endloop
	endfacet
	facet normal 0.8660254103845345 -0.4999999885682983 3.0616169278693985e-17
		outer loop
			vertex 27 6.858022042788798e-15 139
			vertex 27 7.164183742575636e-15 144
			vertex 13.5 -23.382686614990227 144
		endloop
	endfacet
	facet normal -0.8660254103845345 0.4999999885682983 -3.0616169278693985e-17
		outer loop
			vertex 13.5 -23.382686614990227 144
			vertex 27 7.164183742575636e-15 144
			vertex 13.5 -23.382686614990227 139
		endloop
	endfacet
	facet normal -0.8660254103845345 0.4999999885682983 -3.0616169278693985e-17
		outer loop
			vertex 27 7.164183742575636e-15 144
			vertex 27 6.858022042788798e-15 139
			vertex 13.5 -23.382686614990227 139
		endloop
	endfacet
	facet normal 0 -6.123233995736766e-17 -1
		outer loop
			vertex 13.5 -23.382686614990227 139
			vertex 27 6.858022042788798e-15 139
			vertex 14.5 -25.11473655700683 139
		endloop
	endfacet
	facet normal 0 -6.123233995736766e-17 -1
		outer loop
			vertex 27 6.858022042788798e-15 139
			vertex 29 6.735557384000061e-15 139
			vertex 14.5 -25.11473655700683 139
		endloop
	endfacet
	facet normal -0.8660254024676981 0.5000000022806613 -3.061617011833406e-17
		outer loop
			vertex 14.5 -25.11473655700683 139
			vertex 29 6.735557384000061e-15 139
			vertex 14.5 -25.11473655700683 138.41421508789062
		endloop
	endfacet
	facet normal -0.8660254024676981 0.5000000022806613 -3.061617011833406e-17
		outer loop
			vertex 29 6.735557384000061e-15 139
			vertex 29 6.699688403119882e-15 138.41421508789062
			vertex 14.5 -25.11473655700683 138.41421508789062
		endloop
	endfacet
	facet normal -0.6546537393891787 0.3779645149610283 0.6546535778058804
		outer loop
			vertex 14.5 -25.11473655700683 138.41421508789062
			vertex 29 6.699688403119882e-15 138.41421508789062
			vertex 13.5 -23.382686614990227 136.41421508789062
		endloop
	endfacet
	facet normal -0.6546536735589505 0.3779644631331654 0.6546536735589507
		outer loop
			vertex 29 6.699688403119882e-15 138.41421508789062
			vertex 27 6.699688381993884e-15 136.41421508789062
			vertex 13.5 -23.382686614990227 136.41421508789062
		endloop
	endfacet
	facet normal -0.8660254103845345 0.49999998856829836 -3.061616927869399e-17
		outer loop
			vertex 13.5 -23.382686614990227 136.41421508789062
			vertex 27 6.699688381993884e-15 136.41421508789062
			vertex 13.5 -23.382686614990227 133.38661193847656
		endloop
	endfacet
	facet normal -0.8660254103845345 0.49999998856829836 -3.061616927869399e-17
		outer loop
			vertex 27 6.699688381993884e-15 136.41421508789062
			vertex 27 6.514301156692965e-15 133.38661193847656
			vertex 13.5 -23.382686614990227 133.38661193847656
		endloop
	endfacet
	facet normal -0.6804485752991294 0.39285715614258065 0.6185895175647169
		outer loop
			vertex 13.5 -23.382686614990227 133.38661193847656
			vertex 27 6.514301156692965e-15 133.38661193847656
			vertex 8.472455024719238 -14.674723625183098 122.32601165771484
		endloop
	endfacet
	facet normal -0.6804485705434047 0.3928571370618614 0.6185895349139
		outer loop
			vertex 27 6.514301156692965e-15 133.38661193847656
			vertex 16.944910049438477 6.452731428704052e-15 122.32601165771484
			vertex 8.472455024719238 -14.674723625183098 122.32601165771484
		endloop
	endfacet
	facet normal -0.8597876667573157 0.4963986050755187 -0.11980648134007732
		outer loop
			vertex 8.472455024719238 -14.674723625183098 122.32601165771484
			vertex 16.944910049438477 6.452731428704052e-15 122.32601165771484
			vertex 17.004785537719727 -29.45315170288086 -0.13801084458827792
		endloop
	endfacet
	facet normal -0.8597876443605957 0.4963986417420694 -0.11980649014759845
		outer loop
			vertex 16.944910049438477 6.452731428704052e-15 122.32601165771484
			vertex 34.00957107543945 -2.0909362849199017e-15 -0.13801084458827972
			vertex 17.004785537719727 -29.45315170288086 -0.13801084458827792
		endloop
	endfacet
	facet normal 0.13757504715121233 -0.07942899271860349 -0.9873014440975209
		outer loop
			vertex 17.004785537719727 -29.45315170288086 -0.13801084458827792
			vertex 34.00957107543945 -2.0909362849199017e-15 -0.13801084458827972
			vertex 17.5 -30.310888290405273 1.85600661620789e-15
		endloop
	endfacet
	facet normal 0.13757504731541984 -0.07942899280790625 -0.9873014440674548
		outer loop
			vertex 34.00957107543945 -2.0909362849199017e-15 -0.13801084458827972
			vertex 35 -2.143131846440256e-15 1.3122897779469083e-31
			vertex 17.5 -30.310888290405273 1.85600661620789e-15
		endloop
	endfacet
	facet normal 0.8597876460463133 -0.49639864268093054 0.11980647416007738
		outer loop
			vertex 17.5 -30.310888290405273 1.85600661620789e-15
			vertex 35 -2.143131846440256e-15 1.3122897779469083e-31
			vertex 9 -15.588457107543938 122
		endloop
	endfacet
	facet normal 0.8597876496353463 -0.49639863607626156 0.11980647576885978
		outer loop
			vertex 35 -2.143131846440256e-15 1.3122897779469083e-31
			vertex 18 6.368163333941984e-15 122
			vertex 9 -15.588457107543938 122
		endloop
	endfacet
	facet normal 0.6804485368348593 -0.39285714995809584 -0.6185895638030934
		outer loop
			vertex 9 -15.588457107543938 122
			vertex 18 6.368163333941984e-15 122
			vertex 14 -24.24871063232421 133
		endloop
	endfacet
	facet normal 0.6804485286274631 -0.3928571520864984 -0.6185895714795121
		outer loop
			vertex 18 6.368163333941984e-15 122
			vertex 28 6.4293956736502226e-15 133
			vertex 14 -24.24871063232421 133
		endloop
	endfacet
	facet normal 0.8660253977697949 -0.5000000104176683 3.061617061658204e-17
		outer loop
			vertex 14 -24.24871063232421 133
			vertex 28 6.4293956736502226e-15 133
			vertex 14 -24.24871063232421 136
		endloop
	endfacet
	facet normal 0.8660253977697949 -0.5000000104176683 3.061617061658204e-17
		outer loop
			vertex 28 6.4293956736502226e-15 133
			vertex 28 6.613092693522325e-15 136
			vertex 14 -24.24871063232421 136
		endloop
	endfacet
	facet normal 0.6546535798352013 -0.37796443104382704 -0.6546537858094704
		outer loop
			vertex 14 -24.24871063232421 136
			vertex 28 6.613092693522325e-15 136
			vertex 15 -25.980762481689446 138
		endloop
	endfacet
	facet normal 0.6546536720332151 -0.37796446841846804 -0.6546536720332152
		outer loop
			vertex 28 6.613092693522325e-15 136
			vertex 30 6.613092820527443e-15 138
			vertex 15 -25.980762481689446 138
		endloop
	endfacet
	facet normal 0.8660254068524076 -0.4999999946861218 3.061616965330263e-17
		outer loop
			vertex 15 -25.980762481689446 138
			vertex 30 6.613092820527443e-15 138
			vertex 15 -25.980762481689446 140
		endloop
	endfacet
	facet normal 0.8660254068524076 -0.4999999946861218 3.061616965330263e-17
		outer loop
			vertex 30 6.613092820527443e-15 138
			vertex 30 6.7355575004421784e-15 140
			vertex 15 -25.980762481689446 140
		endloop
	endfacet
	facet normal 0 6.123233995736766e-17 1
		outer loop
			vertex 15 -25.980762481689446 140
			vertex 30 6.7355575004421784e-15 140
			vertex 14 -24.24871063232421 140
		endloop
	endfacet
	facet normal 0 6.123233995736766e-17 1
		outer loop
			vertex 30 6.7355575004421784e-15 140
			vertex 28 6.858022053351797e-15 140
			vertex 14 -24.24871063232421 140
		endloop
	endfacet
	facet normal 0.866025397769795 -0.5000000104176683 3.061617061658204e-17
		outer loop
			vertex 14 -24.24871063232421 140
			vertex 28 6.858022053351797e-15 140
			vertex 14 -24.24871063232421 145
		endloop
	endfacet
	facet normal 0.866025397769795 -0.5000000104176683 3.061617061658204e-17
		outer loop
			vertex 28 6.858022053351797e-15 140
			vertex 28 7.164183753138635e-15 145
			vertex 14 -24.24871063232421 145
		endloop
	endfacet
	facet normal 0 6.123233995736766e-17 1
		outer loop
			vertex 14 -24.24871063232421 145
			vertex 28 7.164183753138635e-15 145
			vertex 13 -22.51666069030761 145
		endloop
	endfacet
	facet normal 0 6.123233995736766e-17 1
		outer loop
			vertex 28 7.164183753138635e-15 145
			vertex 26 7.286648411927372e-15 145
			vertex 13 -22.51666069030761 145
		endloop
	endfacet
	facet normal -0.8660254056297483 0.4999999968038299 -3.0616169782974854e-17
		outer loop
			vertex 13 -22.51666069030761 145
			vertex 26 7.286648411927372e-15 145
			vertex 13 -22.51666069030761 140
		endloop
	endfacet
	facet normal -0.8660254056297483 0.4999999968038299 -3.0616169782974854e-17
		outer loop
			vertex 26 7.286648411927372e-15 145
			vertex 26 6.980486712140534e-15 140
			vertex 13 -22.51666069030761 140
		endloop
	endfacet
	facet normal 0 6.123233995736766e-17 1
		outer loop
			vertex 13 -22.51666069030761 140
			vertex 26 6.980486712140534e-15 140
			vertex 7.5 -12.990381240844718 140
		endloop
	endfacet
	facet normal 0 6.123233995736766e-17 1
		outer loop
			vertex 26 6.980486712140534e-15 140
			vertex 15 7.654042547236826e-15 140
			vertex 7.5 -12.990381240844718 140
		endloop
	endfacet
	facet normal 0.8660254068524076 -0.4999999946861218 3.061616965330263e-17
		outer loop
			vertex 7.5 -12.990381240844718 140
			vertex 15 7.654042547236826e-15 140
			vertex 7.5 -12.990381240844716 160
		endloop
	endfacet
	facet normal 0.8660254068524076 -0.4999999946861218 3.061616965330263e-17
		outer loop
			vertex 15 7.654042547236826e-15 140
			vertex 15 8.878689346384179e-15 160
			vertex 7.5 -12.990381240844716 160
		endloop
	endfacet
	facet normal 0 -6.123233995736766e-17 -1
		outer loop
			vertex 7.5 -12.990381240844716 160
			vertex 15 8.878689346384179e-15 160
			vertex 15 -25.980762481689442 160
		endloop
	endfacet
	facet normal 0 -6.123233995736766e-17 -1
		outer loop
			vertex 15 8.878689346384179e-15 160
			vertex 30 7.960204299589531e-15 160
			vertex 15 -25.980762481689442 160
		endloop
	endfacet
	facet normal 0.5282705444917254 -0.3049971367453341 0.7924058167375883
		outer loop
			vertex 15 -25.980762481689442 160
			vertex 30 7.960204299589531e-15 160
			vertex 0 1.1021821192326179e-14 180
		endloop
	endfacet
endsolid exported
