solid exported
	facet normal 0.8000010240251149 0.0003973648653664327 -0.5999985030480757
		outer loop
			vertex 0 5.5109105961630896e-15 90
			vertex -0.599999725818634 -0.0005999999120776871 89.19999694824219
			vertex -0.6000000238418579 5.498663942908478e-15 89.19999694824219
		endloop
	endfacet
	facet normal 0.5999997662998631 0.00029802315146563183 0.8000001197639353
		outer loop
			vertex -0.6000000238418579 5.498663942908478e-15 89.19999694824219
			vertex -0.599999725818634 -0.0005999999120776871 89.19999694824219
			vertex 10.527864456176758 4.306240173682113e-15 80.8541030883789
		endloop
	endfacet
	facet normal -0.599999760071992 -0.00032610857639029636 -0.8000001134792097
		outer loop
			vertex -0.599999725818634 -0.0005999999120776871 89.19999694824219
			vertex 10.52785873413086 0.01052786223590869 80.8541030883789
			vertex 10.527864456176758 4.306240173682113e-15 80.8541030883789
		endloop
	endfacet
	facet normal 0.44721308761039413 0.00024306680277046545 0.8944274119169803
		outer loop
			vertex 10.527864456176758 4.306240173682113e-15 80.8541030883789
			vertex 10.52785873413086 0.01052786223590869 80.8541030883789
			vertex 7.079190254211426 4.622995592739711e-15 82.57843780517578
		endloop
	endfacet
	facet normal 0.44721316952828766 0.0002108624251496554 0.8944273791300782
		outer loop
			vertex 10.52785873413086 0.01052786223590869 80.8541030883789
			vertex 7.079186916351318 0.007079189177607586 82.57843780517578
			vertex 7.079190254211426 4.622995592739711e-15 82.57843780517578
		endloop
	endfacet
	facet normal -0.8320501998091719 -0.00039231430318352754 -0.5547001992851675
		outer loop
			vertex 7.079190254211426 4.622995592739711e-15 82.57843780517578
			vertex 7.079186916351318 0.007079189177607586 82.57843780517578
			vertex 20.421878814697266 2.5804856612899827e-15 62.56440734863281
		endloop
	endfacet
	facet normal -0.8320501854666513 -0.0004662675882271542 -0.5547001635653692
		outer loop
			vertex 7.079186916351318 0.007079189177607586 82.57843780517578
			vertex 20.42186737060547 0.02042187564075376 62.56440734863281
			vertex 20.421878814697266 2.5804856612899827e-15 62.56440734863281
		endloop
	endfacet
	facet normal 0.970142459603726 0.0005436522853756077 -0.24253517789431178
		outer loop
			vertex 20.421878814697266 2.5804856612899827e-15 62.56440734863281
			vertex 20.42186737060547 0.02042187564075376 62.56440734863281
			vertex 21.48044204711914 2.774940994056079e-15 66.79866790771484
		endloop
	endfacet
	facet normal 0.9701423848198506 0.0004307173916318788 -0.2425357038841529
		outer loop
			vertex 20.42186737060547 0.02042187564075376 62.56440734863281
			vertex 21.480432510375977 0.021480439230803765 66.79866790771484
			vertex 21.48044204711914 2.774940994056079e-15 66.79866790771484
		endloop
	endfacet
	facet normal -0.7808688941949413 -0.0003466850006523717 -0.6246948454151673
		outer loop
			vertex 21.48044204711914 2.774940994056079e-15 66.79866790771484
			vertex 21.480432510375977 0.021480439230803765 66.79866790771484
			vertex 27.660001754760742 1.9235657761265957e-15 59.074214935302734
		endloop
	endfacet
	facet normal -0.7808689266714174 -0.00037692429352683917 -0.6246947873058537
		outer loop
			vertex 21.480432510375977 0.021480439230803765 66.79866790771484
			vertex 27.659988403320312 0.027659997344020647 59.074214935302734
			vertex 27.660001754760742 1.9235657761265957e-15 59.074214935302734
		endloop
	endfacet
	facet normal -0.7071069445265113 -0.00034131949218369644 0.7071065354692923
		outer loop
			vertex 27.660001754760742 1.9235657761265957e-15 59.074214935302734
			vertex 27.659988403320312 0.027659997344020647 59.074214935302734
			vertex 24.362911224365234 1.923565700019948e-15 55.777122497558594
		endloop
	endfacet
	facet normal -0.7071067388684703 -0.00038751096384577786 0.7071067173221097
		outer loop
			vertex 27.659988403320312 0.027659997344020647 59.074214935302734
			vertex 24.362897872924805 0.024362906813624935 55.777122497558594
			vertex 24.362911224365234 1.923565700019948e-15 55.777122497558594
		endloop
	endfacet
	facet normal -0.5546999298119396 -0.000303988482404467 0.8320504164157553
		outer loop
			vertex 24.362911224365234 1.923565700019948e-15 55.777122497558594
			vertex 24.362897872924805 0.024362906813624935 55.777122497558594
			vertex 18.27889060974121 2.0477454978414815e-15 51.72111129760742
		endloop
	endfacet
	facet normal -0.5546999726369066 -0.00028940662682458754 0.8320503930654798
		outer loop
			vertex 24.362897872924805 0.024362906813624935 55.777122497558594
			vertex 18.278881072998047 0.01827888749540169 51.72111129760742
			vertex 18.27889060974121 2.0477454978414815e-15 51.72111129760742
		endloop
	endfacet
	facet normal -0.8320502254069093 -0.00043411007925413654 0.5547001297536812
		outer loop
			vertex 18.27889060974121 2.0477454978414815e-15 51.72111129760742
			vertex 18.278881072998047 0.01827888749540169 51.72111129760742
			vertex 9.684586524963379 1.7846206797312643e-15 38.829654693603516
		endloop
	endfacet
	facet normal -0.8320502499760591 -0.000409674214489443 0.5547001114853101
		outer loop
			vertex 18.278881072998047 0.01827888749540169 51.72111129760742
			vertex 9.684581756591797 0.009684585034849638 38.829654693603516
			vertex 9.684586524963379 1.7846206797312643e-15 38.829654693603516
		endloop
	endfacet
	facet normal -0.6633074631753413 -0.00032659080860707944 -0.7483469132924495
		outer loop
			vertex 9.684586524963379 1.7846206797312643e-15 38.829654693603516
			vertex 9.684581756591797 0.009684585034849638 38.829654693603516
			vertex 54.336692810058594 -3.3729858142946e-15 -0.7483469247817993
		endloop
	endfacet
	facet normal -0.6633074632341336 -0.00032597169212980924 -0.7483469135102747
		outer loop
			vertex 9.684581756591797 0.009684585034849638 38.829654693603516
			vertex 54.336666107177734 0.054336681962013196 -0.7483469247817993
			vertex 54.336692810058594 -3.3729858142946e-15 -0.7483469247817993
		endloop
	endfacet
	facet normal 0.7483470432795949 0.00036776301416651216 -0.6633072949734939
		outer loop
			vertex 54.336692810058594 -3.3729858142946e-15 -0.7483469247817993
			vertex 54.336666107177734 0.054336681962013196 -0.7483469247817993
			vertex 55 -3.3677786460858646e-15 2.0621696695829306e-31
		endloop
	endfacet
	facet normal 0.7483468846364704 0.0003633276457674663 -0.6633074763998301
		outer loop
			vertex 54.336666107177734 0.054336681962013196 -0.7483469247817993
			vertex 54.99997329711914 0.05499999225139618 -3.367778223190078e-18
			vertex 55 -3.3677786460858646e-15 2.0621696695829306e-31
		endloop
	endfacet
	facet normal 0.6633074799200291 0.00032204042008730685 0.7483469004225969
		outer loop
			vertex 55 -3.3677786460858646e-15 2.0621696695829306e-31
			vertex 54.99997329711914 0.05499999225139618 -3.367778223190078e-18
			vertex 11 1.714505529120166e-15 39
		endloop
	endfacet
	facet normal 0.663307458728159 0.0003450433078980148 0.7483469089538003
		outer loop
			vertex 54.99997329711914 0.05499999225139618 -3.367778223190078e-18
			vertex 10.999994277954102 0.010999998077752595 39
			vertex 11 1.714505529120166e-15 39
		endloop
	endfacet
	facet normal 0.8320502164021986 0.0004328209418225032 -0.5547001442681324
		outer loop
			vertex 11 1.714505529120166e-15 39
			vertex 10.999994277954102 0.010999998077752595 39
			vertex 19 1.9594348675745106e-15 51
		endloop
	endfacet
	facet normal 0.8320502153502742 0.00041763422297127985 -0.5547001574880055
		outer loop
			vertex 10.999994277954102 0.010999998077752595 39
			vertex 18.999990463256836 0.018999997526410364 51
			vertex 19 1.9594348675745106e-15 51
		endloop
	endfacet
	facet normal 0.5547001747252508 0.0002784228309536167 -0.8320502620878764
		outer loop
			vertex 19 1.9594348675745106e-15 51
			vertex 18.999990463256836 0.018999997526410364 51
			vertex 25 1.8369702510377697e-15 55
		endloop
	endfacet
	facet normal 0.5547002109500505 0.0002962419126424549 -0.8320502317845351
		outer loop
			vertex 18.999990463256836 0.018999997526410364 51
			vertex 24.99998664855957 0.0249999966472421 55
			vertex 25 1.8369702510377697e-15 55
		endloop
	endfacet
	facet normal 0.7071067307667256 0.00037763578637535966 -0.7071067307667256
		outer loop
			vertex 25 1.8369702510377697e-15 55
			vertex 24.99998664855957 0.0249999966472421 55
			vertex 29 1.8369701874106472e-15 59
		endloop
	endfacet
	facet normal 0.707106714805908 0.00037205496215097844 -0.7071067496860015
		outer loop
			vertex 24.99998664855957 0.0249999966472421 55
			vertex 28.999984741210938 0.028999995440248286 59
			vertex 29 1.8369701874106472e-15 59
		endloop
	endfacet
	facet normal 0.7808687435334636 0.0004108659764319047 0.6246949948267708
		outer loop
			vertex 29 1.8369701874106472e-15 59
			vertex 28.999984741210938 0.028999995440248286 59
			vertex 21 2.9391523280183917e-15 69
		endloop
	endfacet
	facet normal 0.7808687179835149 0.0004255397616976446 0.6246950169408214
		outer loop
			vertex 28.999984741210938 0.028999995440248286 59
			vertex 20.999988555908203 0.020999995991591865 69
			vertex 21 2.9391523280183917e-15 69
		endloop
	endfacet
	facet normal -0.9701423645637344 -0.0005286857331092468 0.2425355911409336
		outer loop
			vertex 21 2.9391523280183917e-15 69
			vertex 20.999988555908203 0.020999995991591865 69
			vertex 20 2.755455297583289e-15 65
		endloop
	endfacet
	facet normal -0.9701424779758708 -0.0004626000787560056 0.2425352725440241
		outer loop
			vertex 20.999988555908203 0.020999995991591865 69
			vertex 19.999990463256836 0.019999995827678845 65
			vertex 20 2.755455297583289e-15 65
		endloop
	endfacet
	facet normal 0.832050228850247 0.000396752549376253 0.5547001525668314
		outer loop
			vertex 20 2.755455297583289e-15 65
			vertex 19.999990463256836 0.019999995827678845 65
			vertex 10 4.286263796766609e-15 80
		endloop
	endfacet
	facet normal 0.832050228850247 0.000396752549376253 0.5547001525668314
		outer loop
			vertex 19.999990463256836 0.019999995827678845 65
			vertex 9.999995231628418 0.009999997913842332 80
			vertex 10 4.286263796766609e-15 80
		endloop
	endfacet
	facet normal -0.44721358533149413 -0.00021324809962636245 -0.8944271706629883
		outer loop
			vertex 10 4.286263796766609e-15 80
			vertex 9.999995231628418 0.009999997913842332 80
			vertex 20 3.3677786971569657e-15 75
		endloop
	endfacet
	facet normal -0.44721358533149413 -0.00021324809962636245 -0.8944271706629883
		outer loop
			vertex 9.999995231628418 0.009999997913842332 80
			vertex 19.999990463256836 0.01999999582767946 75
			vertex 20 3.3677786971569657e-15 75
		endloop
	endfacet
	facet normal 0.5999999754436343 0.00028610234289811864 0.799999967258179
		outer loop
			vertex 20 3.3677786971569657e-15 75
			vertex 19.999990463256836 0.01999999582767946 75
			vertex 0 5.5109105961630896e-15 90
		endloop
	endfacet
	facet normal 0.7262738452904146 0.41931442427181503 -0.5447033277341633
		outer loop
			vertex 0 5.5109105961630896e-15 90
			vertex -0.30000001192092896 -0.5196152329444831 89.19999694824219
			vertex -0.6000000238418579 5.498663942908478e-15 89.19999694824219
		endloop
	endfacet
	facet normal 0.5669465313237477 0.32732675135762246 0.755929116032473
		outer loop
			vertex -0.6000000238418579 5.498663942908478e-15 89.19999694824219
			vertex -0.30000001192092896 -0.5196152329444831 89.19999694824219
			vertex 10.527864456176758 4.306240173682113e-15 80.8541030883789
		endloop
	endfacet
	facet normal -0.5669465295530348 -0.3273267586775044 -0.7559291141909066
		outer loop
			vertex -0.30000001192092896 -0.5196152329444831 89.19999694824219
			vertex 5.263932228088379 9.117397308349615 80.8541030883789
			vertex 10.527864456176758 4.306240173682113e-15 80.8541030883789
		endloop
	endfacet
	facet normal 0.43301225060650894 0.24999976024268286 0.8660256986390688
		outer loop
			vertex 10.527864456176758 4.306240173682113e-15 80.8541030883789
			vertex 5.263932228088379 9.117397308349615 80.8541030883789
			vertex 7.079190254211426 4.622995592739711e-15 82.57843780517578
		endloop
	endfacet
	facet normal 0.43301230806831137 0.2499997659385131 0.8660256682639622
		outer loop
			vertex 5.263932228088379 9.117397308349615 80.8541030883789
			vertex 3.539595127105713 6.1307587623596245 82.57843780517578
			vertex 7.079190254211426 4.622995592739711e-15 82.57843780517578
		endloop
	endfacet
	facet normal -0.7499999814254508 -0.43301267958570866 -0.5000000471798258
		outer loop
			vertex 7.079190254211426 4.622995592739711e-15 82.57843780517578
			vertex 3.539595127105713 6.1307587623596245 82.57843780517578
			vertex 20.421878814697266 2.5804856612899827e-15 62.56440734863281
		endloop
	endfacet
	facet normal -0.7499999767111784 -0.4330126993247791 -0.500000037156699
		outer loop
			vertex 3.539595127105713 6.1307587623596245 82.57843780517578
			vertex 10.210939407348633 17.685865402221683 62.56440734863281
			vertex 20.421878814697266 2.5804856612899827e-15 62.56440734863281
		endloop
	endfacet
	facet normal 0.8464148022399269 0.4886778261961207 -0.211603319287244
		outer loop
			vertex 20.421878814697266 2.5804856612899827e-15 62.56440734863281
			vertex 10.210939407348633 17.685865402221683 62.56440734863281
			vertex 21.48044204711914 2.774940994056079e-15 66.79866790771484
		endloop
	endfacet
	facet normal 0.8464147881431394 0.4886777759103452 -0.2116034918046557
		outer loop
			vertex 10.210939407348633 17.685865402221683 62.56440734863281
			vertex 10.74022102355957 18.602609634399418 66.79866790771484
			vertex 21.48044204711914 2.774940994056079e-15 66.79866790771484
		endloop
	endfacet
	facet normal -0.7118686039298181 -0.4109975049845136 -0.569494637055975
		outer loop
			vertex 21.48044204711914 2.774940994056079e-15 66.79866790771484
			vertex 10.74022102355957 18.602609634399418 66.79866790771484
			vertex 27.660001754760742 1.9235657761265957e-15 59.074214935302734
		endloop
	endfacet
	facet normal -0.7118686046108866 -0.41099750637380494 -0.5694946352020039
		outer loop
			vertex 10.74022102355957 18.602609634399418 66.79866790771484
			vertex 13.830000877380371 23.954265594482425 59.074214935302734
			vertex 27.660001754760742 1.9235657761265957e-15 59.074214935302734
		endloop
	endfacet
	facet normal -0.6546538385035229 -0.37796454769916205 0.6546534597901178
		outer loop
			vertex 27.660001754760742 1.9235657761265957e-15 59.074214935302734
			vertex 13.830000877380371 23.954265594482425 59.074214935302734
			vertex 24.362911224365234 1.923565700019948e-15 55.777122497558594
		endloop
	endfacet
	facet normal -0.6546537525426326 -0.3779645236446726 0.6546535596389172
		outer loop
			vertex 13.830000877380371 23.954265594482425 59.074214935302734
			vertex 12.181455612182617 21.098899841308597 55.777122497558594
			vertex 24.362911224365234 1.923565700019948e-15 55.777122497558594
		endloop
	endfacet
	facet normal -0.5282703353750083 -0.3049970230677378 0.7924059999032026
		outer loop
			vertex 24.362911224365234 1.923565700019948e-15 55.777122497558594
			vertex 12.181455612182617 21.098899841308597 55.777122497558594
			vertex 18.27889060974121 2.0477454978414815e-15 51.72111129760742
		endloop
	endfacet
	facet normal -0.5282703028622898 -0.3049970181988353 0.7924060234523737
		outer loop
			vertex 12.181455612182617 21.098899841308597 55.777122497558594
			vertex 9.139445304870605 15.829982757568363 51.72111129760742
			vertex 18.27889060974121 2.0477454978414815e-15 51.72111129760742
		endloop
	endfacet
	facet normal -0.7499999992648154 -0.43301272508692895 0.49999998101556814
		outer loop
			vertex 18.27889060974121 2.0477454978414815e-15 51.72111129760742
			vertex 9.139445304870605 15.829982757568363 51.72111129760742
			vertex 9.684586524963379 1.7846206797312643e-15 38.829654693603516
		endloop
	endfacet
	facet normal -0.7500000322687348 -0.4330127021113062 0.49999995140715997
		outer loop
			vertex 9.139445304870605 15.829982757568363 51.72111129760742
			vertex 4.8422932624816895 8.387098312377931 38.829654693603516
			vertex 9.684586524963379 1.7846206797312643e-15 38.829654693603516
		endloop
	endfacet
	facet normal -0.6194379050687049 -0.3576326260314859 -0.6988530507638339
		outer loop
			vertex 9.684586524963379 1.7846206797312643e-15 38.829654693603516
			vertex 4.8422932624816895 8.387098312377931 38.829654693603516
			vertex 54.336692810058594 -3.3729858142946e-15 -0.7483469247817993
		endloop
	endfacet
	facet normal -0.619437903996361 -0.3576326336742052 -0.6988530478032181
		outer loop
			vertex 4.8422932624816895 8.387098312377931 38.829654693603516
			vertex 27.168346405029297 47.05695724487305 -0.7483469247818022
			vertex 54.336692810058594 -3.3729858142946e-15 -0.7483469247817993
		endloop
	endfacet
	facet normal 0.6869692228397304 0.3966218580300795 -0.6089042524106271
		outer loop
			vertex 54.336692810058594 -3.3729858142946e-15 -0.7483469247817993
			vertex 27.168346405029297 47.05695724487305 -0.7483469247818022
			vertex 55 -3.3677786460858646e-15 2.0621696695829306e-31
		endloop
	endfacet
	facet normal 0.6869694148225048 0.3966219762466453 -0.6089039588117577
		outer loop
			vertex 27.168346405029297 47.05695724487305 -0.7483469247818022
			vertex 27.5 47.63139724731445 -2.9165819088919847e-15
			vertex 55 -3.3677786460858646e-15 2.0621696695829306e-31
		endloop
	endfacet
	facet normal 0.6194379146052043 0.35763264644947107 0.6988530318622818
		outer loop
			vertex 55 -3.3677786460858646e-15 2.0621696695829306e-31
			vertex 27.5 47.63139724731445 -2.9165819088919847e-15
			vertex 11 1.714505529120166e-15 39
		endloop
	endfacet
	facet normal 0.6194379146052043 0.3576326464494711 0.6988530318622818
		outer loop
			vertex 27.5 47.63139724731445 -2.9165819088919847e-15
			vertex 5.5 9.526279449462892 39
			vertex 11 1.714505529120166e-15 39
		endloop
	endfacet
	facet normal 0.7500000001156448 0.43301270160289296 -0.5000000000770966
		outer loop
			vertex 11 1.714505529120166e-15 39
			vertex 5.5 9.526279449462892 39
			vertex 19 1.9594348675745106e-15 51
		endloop
	endfacet
	facet normal 0.7500000003626264 0.43301269261941805 -0.5000000074865418
		outer loop
			vertex 5.5 9.526279449462892 39
			vertex 9.5 16.454483032226566 51
			vertex 19 1.9594348675745106e-15 51
		endloop
	endfacet
	facet normal 0.5282705448714795 0.3049971346076352 -0.7924058173072193
		outer loop
			vertex 19 1.9594348675745106e-15 51
			vertex 9.5 16.454483032226566 51
			vertex 25 1.8369702510377697e-15 55
		endloop
	endfacet
	facet normal 0.528270562530048 0.3049971561161743 -0.7924057972561992
		outer loop
			vertex 9.5 16.454483032226566 51
			vertex 12.5 21.650634765625004 55
			vertex 25 1.8369702510377697e-15 55
		endloop
	endfacet
	facet normal 0.6546536692868914 0.3779644779320129 -0.6546536692868914
		outer loop
			vertex 25 1.8369702510377697e-15 55
			vertex 12.5 21.650634765625004 55
			vertex 29 1.8369701874106472e-15 59
		endloop
	endfacet
	facet normal 0.6546536621488167 0.37796447036628406 -0.6546536807930413
		outer loop
			vertex 12.5 21.650634765625004 55
			vertex 14.5 25.11473655700684 59
			vertex 29 1.8369701874106472e-15 59
		endloop
	endfacet
	facet normal 0.711868496083054 0.4109974703407547 0.5694947968664432
		outer loop
			vertex 29 1.8369701874106472e-15 59
			vertex 14.5 25.11473655700684 59
			vertex 21 2.9391523280183917e-15 69
		endloop
	endfacet
	facet normal 0.7118684843937273 0.4109974725100234 0.5694948099125666
		outer loop
			vertex 14.5 25.11473655700684 59
			vertex 10.5 18.186532974243168 69
			vertex 21 2.9391523280183917e-15 69
		endloop
	endfacet
	facet normal -0.8464147334150867 -0.4886777877589535 0.2116036833537717
		outer loop
			vertex 21 2.9391523280183917e-15 69
			vertex 10.5 18.186532974243168 69
			vertex 20 2.755455297583289e-15 65
		endloop
	endfacet
	facet normal -0.8464147806152316 -0.488677776571684 0.21160352038901623
		outer loop
			vertex 10.5 18.186532974243168 69
			vertex 10 17.320508956909183 65
			vertex 20 2.755455297583289e-15 65
		endloop
	endfacet
	facet normal 0.7500000071546176 0.43301268399243054 0.500000004769745
		outer loop
			vertex 20 2.755455297583289e-15 65
			vertex 10 17.320508956909183 65
			vertex 10 4.286263796766609e-15 80
		endloop
	endfacet
	facet normal 0.7500000071546176 0.43301268399243054 0.500000004769745
		outer loop
			vertex 10 17.320508956909183 65
			vertex 5 8.660254478454595 80
			vertex 10 4.286263796766609e-15 80
		endloop
	endfacet
	facet normal -0.4330127032691261 -0.24999998807563717 -0.8660254065382522
		outer loop
			vertex 10 4.286263796766609e-15 80
			vertex 5 8.660254478454595 80
			vertex 20 3.3677786971569657e-15 75
		endloop
	endfacet
	facet normal -0.4330127032691261 -0.24999998807563717 -0.8660254065382522
		outer loop
			vertex 5 8.660254478454595 80
			vertex 10 17.320508956909183 75
			vertex 20 3.3677786971569657e-15 75
		endloop
	endfacet
	facet normal 0.5669467126043451 0.32732682048479256 0.7559289501391269
		outer loop
			vertex 20 3.3677786971569657e-15 75
			vertex 10 17.320508956909183 75
			vertex 0 5.5109105961630896e-15 90
		endloop
	endfacet
	facet normal 0 0.8386288230265513 -0.5447033111603979
		outer loop
			vertex 0 5.5109105961630896e-15 90
			vertex 0.30000001192092896 -0.5196152329444831 89.19999694824219
			vertex -0.30000001192092896 -0.5196152329444831 89.19999694824219
		endloop
	endfacet
	facet normal 0 0.6546534995968878 0.7559290942049709
		outer loop
			vertex -0.30000001192092896 -0.5196152329444831 89.19999694824219
			vertex 0.30000001192092896 -0.5196152329444831 89.19999694824219
			vertex 5.263932228088379 9.117397308349615 80.8541030883789
		endloop
	endfacet
	facet normal 0 -0.6546534995968878 -0.755929094204971
		outer loop
			vertex 0.30000001192092896 -0.5196152329444831 89.19999694824219
			vertex -5.263932228088379 9.117397308349615 80.8541030883789
			vertex 5.263932228088379 9.117397308349615 80.8541030883789
		endloop
	endfacet
	facet normal 0 0.4999995973009263 0.8660256362827325
		outer loop
			vertex 5.263932228088379 9.117397308349615 80.8541030883789
			vertex -5.263932228088379 9.117397308349615 80.8541030883789
			vertex 3.539595127105713 6.1307587623596245 82.57843780517578
		endloop
	endfacet
	facet normal 0 0.4999995973009263 0.8660256362827325
		outer loop
			vertex -5.263932228088379 9.117397308349615 80.8541030883789
			vertex -3.539595127105713 6.1307587623596245 82.57843780517578
			vertex 3.539595127105713 6.1307587623596245 82.57843780517578
		endloop
	endfacet
	facet normal 0 -0.8660253893906434 -0.5000000249307838
		outer loop
			vertex 3.539595127105713 6.1307587623596245 82.57843780517578
			vertex -3.539595127105713 6.1307587623596245 82.57843780517578
			vertex 10.210939407348633 17.685865402221683 62.56440734863281
		endloop
	endfacet
	facet normal 0 -0.8660253893906434 -0.5000000249307838
		outer loop
			vertex -3.539595127105713 6.1307587623596245 82.57843780517578
			vertex -10.210939407348633 17.685865402221683 62.56440734863281
			vertex 10.210939407348633 17.685865402221683 62.56440734863281
		endloop
	endfacet
	facet normal 0 0.9773555582122461 -0.21160366923007032
		outer loop
			vertex 10.210939407348633 17.685865402221683 62.56440734863281
			vertex -10.210939407348633 17.685865402221683 62.56440734863281
			vertex 10.74022102355957 18.602609634399418 66.79866790771484
		endloop
	endfacet
	facet normal 0 0.977355558212246 -0.2116036692300703
		outer loop
			vertex -10.210939407348633 17.685865402221683 62.56440734863281
			vertex -10.74022102355957 18.602609634399418 66.79866790771484
			vertex 10.74022102355957 18.602609634399418 66.79866790771484
		endloop
	endfacet
	facet normal 0 -0.8219950383225185 -0.5694946505219881
		outer loop
			vertex 10.74022102355957 18.602609634399418 66.79866790771484
			vertex -10.74022102355957 18.602609634399418 66.79866790771484
			vertex 13.830000877380371 23.954265594482425 59.074214935302734
		endloop
	endfacet
	facet normal 0 -0.8219950383225185 -0.5694946505219881
		outer loop
			vertex -10.74022102355957 18.602609634399418 66.79866790771484
			vertex -13.830000877380371 23.954265594482425 59.074214935302734
			vertex 13.830000877380371 23.954265594482425 59.074214935302734
		endloop
	endfacet
	facet normal 0 -0.7559289524332692 0.6546536633007872
		outer loop
			vertex 13.830000877380371 23.954265594482425 59.074214935302734
			vertex -13.830000877380371 23.954265594482425 59.074214935302734
			vertex 12.181455612182617 21.098899841308597 55.777122497558594
		endloop
	endfacet
	facet normal 0 -0.7559289524332691 0.6546536633007872
		outer loop
			vertex -13.830000877380371 23.954265594482425 59.074214935302734
			vertex -12.181455612182617 21.098899841308597 55.777122497558594
			vertex 12.181455612182617 21.098899841308597 55.777122497558594
		endloop
	endfacet
	facet normal 0 -0.6099939921562684 0.7924060382993422
		outer loop
			vertex 12.181455612182617 21.098899841308597 55.777122497558594
			vertex -12.181455612182617 21.098899841308597 55.777122497558594
			vertex 9.139445304870605 15.829982757568363 51.72111129760742
		endloop
	endfacet
	facet normal 0 -0.6099939921562684 0.7924060382993421
		outer loop
			vertex -12.181455612182617 21.098899841308597 55.777122497558594
			vertex -9.139445304870605 15.829982757568363 51.72111129760742
			vertex 9.139445304870605 15.829982757568363 51.72111129760742
		endloop
	endfacet
	facet normal 0 -0.8660254472835253 0.49999992465736437
		outer loop
			vertex 9.139445304870605 15.829982757568363 51.72111129760742
			vertex -9.139445304870605 15.829982757568363 51.72111129760742
			vertex 4.8422932624816895 8.387098312377931 38.829654693603516
		endloop
	endfacet
	facet normal 0 -0.8660254472835253 0.4999999246573643
		outer loop
			vertex -9.139445304870605 15.829982757568363 51.72111129760742
			vertex -4.8422932624816895 8.387098312377931 38.829654693603516
			vertex 4.8422932624816895 8.387098312377931 38.829654693603516
		endloop
	endfacet
	facet normal 0 -0.7152652735527116 -0.6988530521143659
		outer loop
			vertex 4.8422932624816895 8.387098312377931 38.829654693603516
			vertex -4.8422932624816895 8.387098312377931 38.829654693603516
			vertex 27.168346405029297 47.05695724487305 -0.7483469247818022
		endloop
	endfacet
	facet normal 0 -0.7152652735527116 -0.6988530521143659
		outer loop
			vertex -4.8422932624816895 8.387098312377931 38.829654693603516
			vertex -27.168346405029297 47.05695724487305 -0.7483469247818022
			vertex 27.168346405029297 47.05695724487305 -0.7483469247818022
		endloop
	endfacet
	facet normal 0 0.7932441768041656 -0.6089036672301144
		outer loop
			vertex 27.168346405029297 47.05695724487305 -0.7483469247818022
			vertex -27.168346405029297 47.05695724487305 -0.7483469247818022
			vertex 27.5 47.63139724731445 -2.9165819088919847e-15
		endloop
	endfacet
	facet normal 0 0.7932441768041655 -0.6089036672301142
		outer loop
			vertex -27.168346405029297 47.05695724487305 -0.7483469247818022
			vertex -27.5 47.63139724731445 -2.9165819088919847e-15
			vertex 27.5 47.63139724731445 -2.9165819088919847e-15
		endloop
	endfacet
	facet normal 0 0.7152652931246395 0.6988530320828004
		outer loop
			vertex 27.5 47.63139724731445 -2.9165819088919847e-15
			vertex -27.5 47.63139724731445 -2.9165819088919847e-15
			vertex 5.5 9.526279449462892 39
		endloop
	endfacet
	facet normal 0 0.7152652931246395 0.6988530320828004
		outer loop
			vertex -27.5 47.63139724731445 -2.9165819088919847e-15
			vertex -5.5 9.526279449462892 39
			vertex 5.5 9.526279449462892 39
		endloop
	endfacet
	facet normal 0 0.8660253927691836 -0.5000000190789812
		outer loop
			vertex 5.5 9.526279449462892 39
			vertex -5.5 9.526279449462892 39
			vertex 9.5 16.454483032226566 51
		endloop
	endfacet
	facet normal 0 0.8660253927691834 -0.5000000190789811
		outer loop
			vertex -5.5 9.526279449462892 39
			vertex -9.5 16.454483032226566 51
			vertex 9.5 16.454483032226566 51
		endloop
	endfacet
	facet normal 0 0.6099943321408238 -0.7924057765791909
		outer loop
			vertex 9.5 16.454483032226566 51
			vertex -9.5 16.454483032226566 51
			vertex 12.5 21.650634765625004 55
		endloop
	endfacet
	facet normal 0 0.6099943321408238 -0.7924057765791909
		outer loop
			vertex -9.5 16.454483032226566 51
			vertex -12.5 21.650634765625004 55
			vertex 12.5 21.650634765625004 55
		endloop
	endfacet
	facet normal 0 0.755928929535764 -0.6546536897405484
		outer loop
			vertex 12.5 21.650634765625004 55
			vertex -12.5 21.650634765625004 55
			vertex 14.5 25.11473655700684 59
		endloop
	endfacet
	facet normal 0 0.755928929535764 -0.6546536897405484
		outer loop
			vertex -12.5 21.650634765625004 55
			vertex -14.5 25.11473655700684 59
			vertex 14.5 25.11473655700684 59
		endloop
	endfacet
	facet normal 0 0.8219949229632613 0.5694948170287615
		outer loop
			vertex 14.5 25.11473655700684 59
			vertex -14.5 25.11473655700684 59
			vertex 10.5 18.186532974243168 69
		endloop
	endfacet
	facet normal 0 0.8219949229632612 0.5694948170287615
		outer loop
			vertex -14.5 25.11473655700684 59
			vertex -10.5 18.186532974243168 69
			vertex 10.5 18.186532974243168 69
		endloop
	endfacet
	facet normal 0 -0.9773556249108172 0.21160336116230824
		outer loop
			vertex 10.5 18.186532974243168 69
			vertex -10.5 18.186532974243168 69
			vertex 10 17.320508956909183 65
		endloop
	endfacet
	facet normal 0 -0.9773556249108171 0.21160336116230818
		outer loop
			vertex -10.5 18.186532974243168 69
			vertex -10 17.320508956909183 65
			vertex 10 17.320508956909183 65
		endloop
	endfacet
	facet normal 0 0.8660253927691836 0.5000000190789812
		outer loop
			vertex 10 17.320508956909183 65
			vertex -10 17.320508956909183 65
			vertex 5 8.660254478454595 80
		endloop
	endfacet
	facet normal 0 0.8660253927691836 0.5000000190789812
		outer loop
			vertex -10 17.320508956909183 65
			vertex -5 8.660254478454595 80
			vertex 5 8.660254478454595 80
		endloop
	endfacet
	facet normal 0 -0.4999999809210192 -0.8660254147996932
		outer loop
			vertex 5 8.660254478454595 80
			vertex -5 8.660254478454595 80
			vertex 10 17.320508956909183 75
		endloop
	endfacet
	facet normal 0 -0.4999999809210192 -0.8660254147996932
		outer loop
			vertex -5 8.660254478454595 80
			vertex -10 17.320508956909183 75
			vertex 10 17.320508956909183 75
		endloop
	endfacet
	facet normal 0 0.6546536516754057 0.7559289625011446
		outer loop
			vertex 10 17.320508956909183 75
			vertex -10 17.320508956909183 75
			vertex 0 5.5109105961630896e-15 90
		endloop
	endfacet
	facet normal -0.7262738452904145 0.41931442427181514 -0.5447033277341634
		outer loop
			vertex 0 5.5109105961630896e-15 90
			vertex 0.6000000238418579 5.351706327215703e-15 89.19999694824219
			vertex 0.30000001192092896 -0.5196152329444831 89.19999694824219
		endloop
	endfacet
	facet normal -0.5669465352294756 0.3273267536125957 0.7559291121267471
		outer loop
			vertex 0.30000001192092896 -0.5196152329444831 89.19999694824219
			vertex 0.6000000238418579 5.351706327215703e-15 89.19999694824219
			vertex -5.263932228088379 9.117397308349615 80.8541030883789
		endloop
	endfacet
	facet normal 0.5669465297756284 -0.32732675880601897 -0.7559291139683129
		outer loop
			vertex 0.6000000238418579 5.351706327215703e-15 89.19999694824219
			vertex -10.527864456176758 6.8848230820972135e-15 80.8541030883789
			vertex -5.263932228088379 9.117397308349615 80.8541030883789
		endloop
	endfacet
	facet normal -0.43301228724491064 0.24999978139587578 0.8660256742134989
		outer loop
			vertex -5.263932228088379 9.117397308349615 80.8541030883789
			vertex -10.527864456176758 6.8848230820972135e-15 80.8541030883789
			vertex -3.539595127105713 6.1307587623596245 82.57843780517578
		endloop
	endfacet
	facet normal -0.43301225358127365 0.24999973448040808 0.8660257045886066
		outer loop
			vertex -10.527864456176758 6.8848230820972135e-15 80.8541030883789
			vertex -7.079190254211426 6.356897155590106e-15 82.57843780517578
			vertex -3.539595127105713 6.1307587623596245 82.57843780517578
		endloop
	endfacet
	facet normal 0.7499999888684741 -0.43301268388294 -0.5000000322937809
		outer loop
			vertex -3.539595127105713 6.1307587623596245 82.57843780517578
			vertex -7.079190254211426 6.356897155590106e-15 82.57843780517578
			vertex -10.210939407348633 17.685865402221683 62.56440734863281
		endloop
	endfacet
	facet normal 0.749999974131074 -0.43301269783515517 -0.5000000423169074
		outer loop
			vertex -7.079190254211426 6.356897155590106e-15 82.57843780517578
			vertex -20.421878814697266 7.582403256140917e-15 62.56440734863281
			vertex -10.210939407348633 17.685865402221683 62.56440734863281
		endloop
	endfacet
	facet normal -0.8464147690757848 0.48867780704879393 -0.2116034961629121
		outer loop
			vertex -10.210939407348633 17.685865402221683 62.56440734863281
			vertex -20.421878814697266 7.582403256140917e-15 62.56440734863281
			vertex -10.74022102355957 18.602609634399418 66.79866790771484
		endloop
	endfacet
	facet normal -0.8464148196729403 0.48867779411408324 -0.2116033236454895
		outer loop
			vertex -20.421878814697266 7.582403256140917e-15 62.56440734863281
			vertex -21.48044204711914 8.036131985929765e-15 66.79866790771484
			vertex -10.74022102355957 18.602609634399418 66.79866790771484
		endloop
	endfacet
	facet normal 0.7118686051820857 -0.41099750570751076 -0.5694946349688614
		outer loop
			vertex -10.74022102355957 18.602609634399418 66.79866790771484
			vertex -21.48044204711914 8.036131985929765e-15 66.79866790771484
			vertex -13.830000877380371 23.954265594482425 59.074214935302734
		endloop
	endfacet
	facet normal 0.7118686036383898 -0.41099750581233363 -0.5694946368228325
		outer loop
			vertex -21.48044204711914 8.036131985929765e-15 66.79866790771484
			vertex -27.660001754760742 8.698312529910704e-15 59.074214935302734
			vertex -13.830000877380371 23.954265594482425 59.074214935302734
		endloop
	endfacet
	facet normal 0.6546537683630935 -0.3779645072035687 0.6546535533107299
		outer loop
			vertex -13.830000877380371 23.954265594482425 59.074214935302734
			vertex -27.660001754760742 8.698312529910704e-15 59.074214935302734
			vertex -12.181455612182617 21.098899841308597 55.777122497558594
		endloop
	endfacet
	facet normal 0.654653832175335 -0.3779645696206353 0.6546534534619338
		outer loop
			vertex -27.660001754760742 8.698312529910704e-15 59.074214935302734
			vertex -24.362911224365234 7.89075759463891e-15 55.777122497558594
			vertex -12.181455612182617 21.098899841308597 55.777122497558594
		endloop
	endfacet
	facet normal 0.5282703126621019 -0.3049970099544351 0.7924060200924394
		outer loop
			vertex -12.181455612182617 21.098899841308597 55.777122497558594
			vertex -24.362911224365234 7.89075759463891e-15 55.777122497558594
			vertex -9.139445304870605 15.829982757568363 51.72111129760742
		endloop
	endfacet
	facet normal 0.5282703331350532 -0.3049970356768245 0.792405996543268
		outer loop
			vertex -24.362911224365234 7.89075759463891e-15 55.777122497558594
			vertex -18.27889060974121 6.524782186267343e-15 51.72111129760742
			vertex -9.139445304870605 15.829982757568363 51.72111129760742
		endloop
	endfacet
	facet normal 0.7500000095190906 -0.43301273100723797 0.4999999605070161
		outer loop
			vertex -9.139445304870605 15.829982757568363 51.72111129760742
			vertex -18.27889060974121 6.524782186267343e-15 51.72111129760742
			vertex -4.8422932624816895 8.387098312377931 38.829654693603516
		endloop
	endfacet
	facet normal 0.7500000129146028 -0.4330126909371935 0.49999999011542623
		outer loop
			vertex -18.27889060974121 6.524782186267343e-15 51.72111129760742
			vertex -9.684586524963379 4.156660268491239e-15 38.829654693603516
			vertex -4.8422932624816895 8.387098312377931 38.829654693603516
		endloop
	endfacet
	facet normal 0.6194379093210671 -0.35763262848658833 -0.698853045738315
		outer loop
			vertex -4.8422932624816895 8.387098312377931 38.829654693603516
			vertex -9.684586524963379 4.156660268491239e-15 38.829654693603516
			vertex -27.168346405029297 47.05695724487305 -0.7483469247818022
		endloop
	endfacet
	facet normal 0.61943790323845 -0.3576326332366252 -0.6988530486989307
		outer loop
			vertex -9.684586524963379 4.156660268491239e-15 38.829654693603516
			vertex -54.336692810058594 9.935665733183114e-15 -0.7483469247817993
			vertex -27.168346405029297 47.05695724487305 -0.7483469247818022
		endloop
	endfacet
	facet normal -0.6869694192001502 0.39662197139881855 -0.6089039570306002
		outer loop
			vertex -27.168346405029297 47.05695724487305 -0.7483469247818022
			vertex -54.336692810058594 9.935665733183114e-15 -0.7483469247817993
			vertex -27.5 47.63139724731445 -2.9165819088919847e-15
		endloop
	endfacet
	facet normal -0.6869692208302154 0.39662186424514495 -0.608904250629467
		outer loop
			vertex -54.336692810058594 9.935665733183114e-15 -0.7483469247817993
			vertex -55 1.010333615001583e-14 -6.186509138413315e-31
			vertex -27.5 47.63139724731445 -2.9165819088919847e-15
		endloop
	endfacet
	facet normal -0.6194379146052043 0.35763264644947107 0.6988530318622818
		outer loop
			vertex -27.5 47.63139724731445 -2.9165819088919847e-15
			vertex -55 1.010333615001583e-14 -6.186509138413315e-31
			vertex -5.5 9.526279449462892 39
		endloop
	endfacet
	facet normal -0.6194379146052043 0.3576326464494711 0.6988530318622818
		outer loop
			vertex -55 1.010333615001583e-14 -6.186509138413315e-31
			vertex -11 4.408728445988857e-15 39
			vertex -5.5 9.526279449462892 39
		endloop
	endfacet
	facet normal -0.7499999954229961 0.43301269889359106 -0.5000000094623941
		outer loop
			vertex -5.5 9.526279449462892 39
			vertex -11 4.408728445988857e-15 39
			vertex -9.5 16.454483032226566 51
		endloop
	endfacet
	facet normal -0.7500000030794229 0.43301269418796134 -0.5000000020529487
		outer loop
			vertex -11 4.408728445988857e-15 39
			vertex -19 6.613092642700353e-15 51
			vertex -9.5 16.454483032226566 51
		endloop
	endfacet
	facet normal -0.5282705705048846 0.3049971494070883 -0.7924057945219696
		outer loop
			vertex -9.5 16.454483032226566 51
			vertex -19 6.613092642700353e-15 51
			vertex -12.5 21.650634765625004 55
		endloop
	endfacet
	facet normal -0.5282705430486596 0.30499714486858936 -0.7924058145729894
		outer loop
			vertex -19 6.613092642700353e-15 51
			vertex -25 7.960204143386695e-15 55
			vertex -12.5 21.650634765625004 55
		endloop
	endfacet
	facet normal -0.6546536600180483 0.37796447258064386 -0.6546536816453488
		outer loop
			vertex -12.5 21.650634765625004 55
			vertex -25 7.960204143386695e-15 55
			vertex -14.5 25.11473655700684 59
		endloop
	endfacet
	facet normal -0.6546536701391987 0.37796447497953334 -0.6546536701391987
		outer loop
			vertex -25 7.960204143386695e-15 55
			vertex -29 8.939921455948588e-15 59
			vertex -14.5 25.11473655700684 59
		endloop
	endfacet
	facet normal -0.7118684895078078 0.4109974665445345 0.5694948078251868
		outer loop
			vertex -14.5 25.11473655700684 59
			vertex -29 8.939921455948588e-15 59
			vertex -10.5 18.186532974243168 69
		endloop
	endfacet
	facet normal -0.7118684934738292 0.4109974777524229 0.5694947947790635
		outer loop
			vertex -29 8.939921455948588e-15 59
			vertex -21 8.082668950057419e-15 69
			vertex -10.5 18.186532974243168 69
		endloop
	endfacet
	facet normal 0.8464147632257021 -0.48867780497012087 0.21160352436375715
		outer loop
			vertex -10.5 18.186532974243168 69
			vertex -21 8.082668950057419e-15 69
			vertex -10 17.320508956909183 65
		endloop
	endfacet
	facet normal 0.8464147493140864 -0.4886777584999604 0.2116036873285217
		outer loop
			vertex -21 8.082668950057419e-15 69
			vertex -20 7.654042284407488e-15 65
			vertex -10 17.320508956909183 65
		endloop
	endfacet
	facet normal -0.7500000071546176 0.4330126839924306 0.500000004769745
		outer loop
			vertex -10 17.320508956909183 65
			vertex -20 7.654042284407488e-15 65
			vertex -5 8.660254478454595 80
		endloop
	endfacet
	facet normal -0.7500000071546176 0.4330126839924306 0.5000000047697452
		outer loop
			vertex -20 7.654042284407488e-15 65
			vertex -10 6.7355572901787076e-15 80
			vertex -5 8.660254478454595 80
		endloop
	endfacet
	facet normal 0.4330127032691261 -0.24999998807563723 -0.8660254065382522
		outer loop
			vertex -5 8.660254478454595 80
			vertex -10 6.7355572901787076e-15 80
			vertex -10 17.320508956909183 75
		endloop
	endfacet
	facet normal 0.433012703269126 -0.24999998807563717 -0.8660254065382522
		outer loop
			vertex -10 6.7355572901787076e-15 80
			vertex -20 8.266365683981164e-15 75
			vertex -10 17.320508956909183 75
		endloop
	endfacet
	facet normal -0.566946712604345 0.32732682048479256 0.7559289501391269
		outer loop
			vertex -10 17.320508956909183 75
			vertex -20 8.266365683981164e-15 75
			vertex 0 5.5109105961630896e-15 90
		endloop
	endfacet
	facet normal -0.7262738452904146 -0.41931442427181503 -0.5447033277341632
		outer loop
			vertex 0 5.5109105961630896e-15 90
			vertex 0.30000001192092896 0.519615232944494 89.19999694824219
			vertex 0.6000000238418579 5.351706327215703e-15 89.19999694824219
		endloop
	endfacet
	facet normal -0.5669465313237478 -0.32732675135762235 0.755929116032473
		outer loop
			vertex 0.6000000238418579 5.351706327215703e-15 89.19999694824219
			vertex 0.30000001192092896 0.519615232944494 89.19999694824219
			vertex -10.527864456176758 6.8848230820972135e-15 80.8541030883789
		endloop
	endfacet
	facet normal 0.5669465295530349 0.32732675867750427 -0.7559291141909066
		outer loop
			vertex 0.30000001192092896 0.519615232944494 89.19999694824219
			vertex -5.263932228088379 -9.117397308349604 80.8541030883789
			vertex -10.527864456176758 6.8848230820972135e-15 80.8541030883789
		endloop
	endfacet
	facet normal -0.4330122506065089 -0.2499997602426827 0.8660256986390686
		outer loop
			vertex -10.527864456176758 6.8848230820972135e-15 80.8541030883789
			vertex -5.263932228088379 -9.117397308349604 80.8541030883789
			vertex -7.079190254211426 6.356897155590106e-15 82.57843780517578
		endloop
	endfacet
	facet normal -0.4330123080683115 -0.249999765938513 0.8660256682639622
		outer loop
			vertex -5.263932228088379 -9.117397308349604 80.8541030883789
			vertex -3.539595127105713 -6.130758762359614 82.57843780517578
			vertex -7.079190254211426 6.356897155590106e-15 82.57843780517578
		endloop
	endfacet
	facet normal 0.7499999814254509 0.43301267958570855 -0.5000000471798258
		outer loop
			vertex -7.079190254211426 6.356897155590106e-15 82.57843780517578
			vertex -3.539595127105713 -6.130758762359614 82.57843780517578
			vertex -20.421878814697266 7.582403256140917e-15 62.56440734863281
		endloop
	endfacet
	facet normal 0.7499999767111785 0.433012699324779 -0.5000000371566992
		outer loop
			vertex -3.539595127105713 -6.130758762359614 82.57843780517578
			vertex -10.210939407348633 -17.685865402221676 62.56440734863281
			vertex -20.421878814697266 7.582403256140917e-15 62.56440734863281
		endloop
	endfacet
	facet normal -0.846414802239927 -0.4886778261961206 -0.2116033192872439
		outer loop
			vertex -20.421878814697266 7.582403256140917e-15 62.56440734863281
			vertex -10.210939407348633 -17.685865402221676 62.56440734863281
			vertex -21.48044204711914 8.036131985929765e-15 66.79866790771484
		endloop
	endfacet
	facet normal -0.8464147881431394 -0.4886777759103451 -0.21160349180465562
		outer loop
			vertex -10.210939407348633 -17.685865402221676 62.56440734863281
			vertex -10.74022102355957 -18.60260963439941 66.79866790771484
			vertex -21.48044204711914 8.036131985929765e-15 66.79866790771484
		endloop
	endfacet
	facet normal 0.7118686039298181 0.4109975049845135 -0.569494637055975
		outer loop
			vertex -21.48044204711914 8.036131985929765e-15 66.79866790771484
			vertex -10.74022102355957 -18.60260963439941 66.79866790771484
			vertex -27.660001754760742 8.698312529910704e-15 59.074214935302734
		endloop
	endfacet
	facet normal 0.7118686046108866 0.4109975063738047 -0.5694946352020038
		outer loop
			vertex -10.74022102355957 -18.60260963439941 66.79866790771484
			vertex -13.830000877380371 -23.95426559448242 59.074214935302734
			vertex -27.660001754760742 8.698312529910704e-15 59.074214935302734
		endloop
	endfacet
	facet normal 0.6546538385035228 0.37796454769916193 0.6546534597901178
		outer loop
			vertex -27.660001754760742 8.698312529910704e-15 59.074214935302734
			vertex -13.830000877380371 -23.95426559448242 59.074214935302734
			vertex -24.362911224365234 7.89075759463891e-15 55.777122497558594
		endloop
	endfacet
	facet normal 0.6546537525426326 0.3779645236446726 0.6546535596389171
		outer loop
			vertex -13.830000877380371 -23.95426559448242 59.074214935302734
			vertex -12.181455612182617 -21.09889984130859 55.777122497558594
			vertex -24.362911224365234 7.89075759463891e-15 55.777122497558594
		endloop
	endfacet
	facet normal 0.5282703353750082 0.3049970230677378 0.7924059999032025
		outer loop
			vertex -24.362911224365234 7.89075759463891e-15 55.777122497558594
			vertex -12.181455612182617 -21.09889984130859 55.777122497558594
			vertex -18.27889060974121 6.524782186267343e-15 51.72111129760742
		endloop
	endfacet
	facet normal 0.5282703028622898 0.3049970181988354 0.7924060234523738
		outer loop
			vertex -12.181455612182617 -21.09889984130859 55.777122497558594
			vertex -9.139445304870605 -15.829982757568356 51.72111129760742
			vertex -18.27889060974121 6.524782186267343e-15 51.72111129760742
		endloop
	endfacet
	facet normal 0.7499999992648154 0.43301272508692895 0.49999998101556814
		outer loop
			vertex -18.27889060974121 6.524782186267343e-15 51.72111129760742
			vertex -9.139445304870605 -15.829982757568356 51.72111129760742
			vertex -9.684586524963379 4.156660268491239e-15 38.829654693603516
		endloop
	endfacet
	facet normal 0.7500000322687347 0.43301270211130616 0.4999999514071598
		outer loop
			vertex -9.139445304870605 -15.829982757568356 51.72111129760742
			vertex -4.8422932624816895 -8.387098312377928 38.829654693603516
			vertex -9.684586524963379 4.156660268491239e-15 38.829654693603516
		endloop
	endfacet
	facet normal 0.6194379050687049 0.3576326260314857 -0.6988530507638337
		outer loop
			vertex -9.684586524963379 4.156660268491239e-15 38.829654693603516
			vertex -4.8422932624816895 -8.387098312377928 38.829654693603516
			vertex -54.336692810058594 9.935665733183114e-15 -0.7483469247817993
		endloop
	endfacet
	facet normal 0.619437903996361 0.35763263367420506 -0.698853047803218
		outer loop
			vertex -4.8422932624816895 -8.387098312377928 38.829654693603516
			vertex -27.168346405029297 -47.05695724487305 -0.7483469247817964
			vertex -54.336692810058594 9.935665733183114e-15 -0.7483469247817993
		endloop
	endfacet
	facet normal -0.6869692228397304 -0.39662185803007954 -0.608904252410627
		outer loop
			vertex -54.336692810058594 9.935665733183114e-15 -0.7483469247817993
			vertex -27.168346405029297 -47.05695724487305 -0.7483469247817964
			vertex -55 1.010333615001583e-14 -6.186509138413315e-31
		endloop
	endfacet
	facet normal -0.686969414822505 -0.3966219762466454 -0.6089039588117577
		outer loop
			vertex -27.168346405029297 -47.05695724487305 -0.7483469247817964
			vertex -27.5 -47.63139724731445 2.9165819088919847e-15
			vertex -55 1.010333615001583e-14 -6.186509138413315e-31
		endloop
	endfacet
	facet normal -0.6194379146052044 -0.35763264644947096 0.6988530318622818
		outer loop
			vertex -55 1.010333615001583e-14 -6.186509138413315e-31
			vertex -27.5 -47.63139724731445 2.9165819088919847e-15
			vertex -11 4.408728445988857e-15 39
		endloop
	endfacet
	facet normal -0.6194379146052044 -0.357632646449471 0.6988530318622818
		outer loop
			vertex -27.5 -47.63139724731445 2.9165819088919847e-15
			vertex -5.5 -9.526279449462889 39
			vertex -11 4.408728445988857e-15 39
		endloop
	endfacet
	facet normal -0.7500000001156449 -0.433012701602893 -0.5000000000770964
		outer loop
			vertex -11 4.408728445988857e-15 39
			vertex -5.5 -9.526279449462889 39
			vertex -19 6.613092642700353e-15 51
		endloop
	endfacet
	facet normal -0.7500000003626265 -0.43301269261941805 -0.5000000074865417
		outer loop
			vertex -5.5 -9.526279449462889 39
			vertex -9.5 -16.45448303222656 51
			vertex -19 6.613092642700353e-15 51
		endloop
	endfacet
	facet normal -0.5282705448714795 -0.3049971346076353 -0.7924058173072194
		outer loop
			vertex -19 6.613092642700353e-15 51
			vertex -9.5 -16.45448303222656 51
			vertex -25 7.960204143386695e-15 55
		endloop
	endfacet
	facet normal -0.528270562530048 -0.3049971561161744 -0.7924057972561992
		outer loop
			vertex -9.5 -16.45448303222656 51
			vertex -12.5 -21.650634765624996 55
			vertex -25 7.960204143386695e-15 55
		endloop
	endfacet
	facet normal -0.6546536692868914 -0.377964477932013 -0.6546536692868913
		outer loop
			vertex -25 7.960204143386695e-15 55
			vertex -12.5 -21.650634765624996 55
			vertex -29 8.939921455948588e-15 59
		endloop
	endfacet
	facet normal -0.6546536621488168 -0.37796447036628417 -0.6546536807930413
		outer loop
			vertex -12.5 -21.650634765624996 55
			vertex -14.5 -25.114736557006832 59
			vertex -29 8.939921455948588e-15 59
		endloop
	endfacet
	facet normal -0.711868496083054 -0.4109974703407545 0.5694947968664432
		outer loop
			vertex -29 8.939921455948588e-15 59
			vertex -14.5 -25.114736557006832 59
			vertex -21 8.082668950057419e-15 69
		endloop
	endfacet
	facet normal -0.7118684843937274 -0.4109974725100233 0.5694948099125666
		outer loop
			vertex -14.5 -25.114736557006832 59
			vertex -10.5 -18.18653297424316 69
			vertex -21 8.082668950057419e-15 69
		endloop
	endfacet
	facet normal 0.8464147334150866 0.4886777877589533 0.21160368335377155
		outer loop
			vertex -21 8.082668950057419e-15 69
			vertex -10.5 -18.18653297424316 69
			vertex -20 7.654042284407488e-15 65
		endloop
	endfacet
	facet normal 0.8464147806152316 0.4886777765716839 0.21160352038901611
		outer loop
			vertex -10.5 -18.18653297424316 69
			vertex -10 -17.320508956909176 65
			vertex -20 7.654042284407488e-15 65
		endloop
	endfacet
	facet normal -0.7500000071546177 -0.43301268399243037 0.500000004769745
		outer loop
			vertex -20 7.654042284407488e-15 65
			vertex -10 -17.320508956909176 65
			vertex -10 6.7355572901787076e-15 80
		endloop
	endfacet
	facet normal -0.7500000071546177 -0.43301268399243037 0.500000004769745
		outer loop
			vertex -10 -17.320508956909176 65
			vertex -5 -8.660254478454585 80
			vertex -10 6.7355572901787076e-15 80
		endloop
	endfacet
	facet normal 0.43301270326912616 0.24999998807563706 -0.8660254065382523
		outer loop
			vertex -10 6.7355572901787076e-15 80
			vertex -5 -8.660254478454585 80
			vertex -20 8.266365683981164e-15 75
		endloop
	endfacet
	facet normal 0.43301270326912616 0.24999998807563706 -0.8660254065382522
		outer loop
			vertex -5 -8.660254478454585 80
			vertex -10 -17.320508956909176 75
			vertex -20 8.266365683981164e-15 75
		endloop
	endfacet
	facet normal -0.5669467126043451 -0.3273268204847924 0.7559289501391268
		outer loop
			vertex -20 8.266365683981164e-15 75
			vertex -10 -17.320508956909176 75
			vertex 0 5.5109105961630896e-15 90
		endloop
	endfacet
	facet normal 0 -0.8386288230265513 -0.5447033111603979
		outer loop
			vertex 0 5.5109105961630896e-15 90
			vertex -0.30000001192092896 0.519615232944494 89.19999694824219
			vertex 0.30000001192092896 0.519615232944494 89.19999694824219
		endloop
	endfacet
	facet normal 0 -0.6546534995968878 0.7559290942049709
		outer loop
			vertex 0.30000001192092896 0.519615232944494 89.19999694824219
			vertex -0.30000001192092896 0.519615232944494 89.19999694824219
			vertex -5.263932228088379 -9.117397308349604 80.8541030883789
		endloop
	endfacet
	facet normal 0 0.6546534995968878 -0.755929094204971
		outer loop
			vertex -0.30000001192092896 0.519615232944494 89.19999694824219
			vertex 5.263932228088379 -9.117397308349604 80.8541030883789
			vertex -5.263932228088379 -9.117397308349604 80.8541030883789
		endloop
	endfacet
	facet normal 0 -0.4999995973009262 0.8660256362827325
		outer loop
			vertex -5.263932228088379 -9.117397308349604 80.8541030883789
			vertex 5.263932228088379 -9.117397308349604 80.8541030883789
			vertex -3.539595127105713 -6.130758762359614 82.57843780517578
		endloop
	endfacet
	facet normal 0 -0.4999995973009262 0.8660256362827325
		outer loop
			vertex 5.263932228088379 -9.117397308349604 80.8541030883789
			vertex 3.539595127105713 -6.130758762359614 82.57843780517578
			vertex -3.539595127105713 -6.130758762359614 82.57843780517578
		endloop
	endfacet
	facet normal 0 0.8660253893906434 -0.5000000249307838
		outer loop
			vertex -3.539595127105713 -6.130758762359614 82.57843780517578
			vertex 3.539595127105713 -6.130758762359614 82.57843780517578
			vertex -10.210939407348633 -17.685865402221676 62.56440734863281
		endloop
	endfacet
	facet normal 0 0.8660253893906434 -0.5000000249307838
		outer loop
			vertex 3.539595127105713 -6.130758762359614 82.57843780517578
			vertex 10.210939407348633 -17.685865402221676 62.56440734863281
			vertex -10.210939407348633 -17.685865402221676 62.56440734863281
		endloop
	endfacet
	facet normal 0 -0.9773555582122461 -0.2116036692300702
		outer loop
			vertex -10.210939407348633 -17.685865402221676 62.56440734863281
			vertex 10.210939407348633 -17.685865402221676 62.56440734863281
			vertex -10.74022102355957 -18.60260963439941 66.79866790771484
		endloop
	endfacet
	facet normal 0 -0.977355558212246 -0.21160366923007018
		outer loop
			vertex 10.210939407348633 -17.685865402221676 62.56440734863281
			vertex 10.74022102355957 -18.60260963439941 66.79866790771484
			vertex -10.74022102355957 -18.60260963439941 66.79866790771484
		endloop
	endfacet
	facet normal 0 0.8219950383225185 -0.5694946505219881
		outer loop
			vertex -10.74022102355957 -18.60260963439941 66.79866790771484
			vertex 10.74022102355957 -18.60260963439941 66.79866790771484
			vertex -13.830000877380371 -23.95426559448242 59.074214935302734
		endloop
	endfacet
	facet normal 0 0.8219950383225185 -0.5694946505219881
		outer loop
			vertex 10.74022102355957 -18.60260963439941 66.79866790771484
			vertex 13.830000877380371 -23.95426559448242 59.074214935302734
			vertex -13.830000877380371 -23.95426559448242 59.074214935302734
		endloop
	endfacet
	facet normal 0 0.7559289524332692 0.6546536633007872
		outer loop
			vertex -13.830000877380371 -23.95426559448242 59.074214935302734
			vertex 13.830000877380371 -23.95426559448242 59.074214935302734
			vertex -12.181455612182617 -21.09889984130859 55.777122497558594
		endloop
	endfacet
	facet normal 0 0.7559289524332691 0.6546536633007872
		outer loop
			vertex 13.830000877380371 -23.95426559448242 59.074214935302734
			vertex 12.181455612182617 -21.09889984130859 55.777122497558594
			vertex -12.181455612182617 -21.09889984130859 55.777122497558594
		endloop
	endfacet
	facet normal 0 0.6099939921562684 0.7924060382993422
		outer loop
			vertex -12.181455612182617 -21.09889984130859 55.777122497558594
			vertex 12.181455612182617 -21.09889984130859 55.777122497558594
			vertex -9.139445304870605 -15.829982757568356 51.72111129760742
		endloop
	endfacet
	facet normal 0 0.6099939921562684 0.7924060382993421
		outer loop
			vertex 12.181455612182617 -21.09889984130859 55.777122497558594
			vertex 9.139445304870605 -15.829982757568356 51.72111129760742
			vertex -9.139445304870605 -15.829982757568356 51.72111129760742
		endloop
	endfacet
	facet normal 0 0.8660254472835253 0.49999992465736426
		outer loop
			vertex -9.139445304870605 -15.829982757568356 51.72111129760742
			vertex 9.139445304870605 -15.829982757568356 51.72111129760742
			vertex -4.8422932624816895 -8.387098312377928 38.829654693603516
		endloop
	endfacet
	facet normal 0 0.8660254472835253 0.4999999246573642
		outer loop
			vertex 9.139445304870605 -15.829982757568356 51.72111129760742
			vertex 4.8422932624816895 -8.387098312377928 38.829654693603516
			vertex -4.8422932624816895 -8.387098312377928 38.829654693603516
		endloop
	endfacet
	facet normal 0 0.7152652735527116 -0.6988530521143659
		outer loop
			vertex -4.8422932624816895 -8.387098312377928 38.829654693603516
			vertex 4.8422932624816895 -8.387098312377928 38.829654693603516
			vertex -27.168346405029297 -47.05695724487305 -0.7483469247817964
		endloop
	endfacet
	facet normal 0 0.7152652735527116 -0.6988530521143659
		outer loop
			vertex 4.8422932624816895 -8.387098312377928 38.829654693603516
			vertex 27.168346405029297 -47.05695724487305 -0.7483469247817964
			vertex -27.168346405029297 -47.05695724487305 -0.7483469247817964
		endloop
	endfacet
	facet normal 0 -0.7932441768041656 -0.6089036672301144
		outer loop
			vertex -27.168346405029297 -47.05695724487305 -0.7483469247817964
			vertex 27.168346405029297 -47.05695724487305 -0.7483469247817964
			vertex -27.5 -47.63139724731445 2.9165819088919847e-15
		endloop
	endfacet
	facet normal 0 -0.7932441768041655 -0.6089036672301142
		outer loop
			vertex 27.168346405029297 -47.05695724487305 -0.7483469247817964
			vertex 27.5 -47.63139724731445 2.9165819088919847e-15
			vertex -27.5 -47.63139724731445 2.9165819088919847e-15
		endloop
	endfacet
	facet normal 0 -0.7152652931246395 0.6988530320828004
		outer loop
			vertex -27.5 -47.63139724731445 2.9165819088919847e-15
			vertex 27.5 -47.63139724731445 2.9165819088919847e-15
			vertex -5.5 -9.526279449462889 39
		endloop
	endfacet
	facet normal 0 -0.7152652931246395 0.6988530320828004
		outer loop
			vertex 27.5 -47.63139724731445 2.9165819088919847e-15
			vertex 5.5 -9.526279449462889 39
			vertex -5.5 -9.526279449462889 39
		endloop
	endfacet
	facet normal 0 -0.8660253927691836 -0.5000000190789812
		outer loop
			vertex -5.5 -9.526279449462889 39
			vertex 5.5 -9.526279449462889 39
			vertex -9.5 -16.45448303222656 51
		endloop
	endfacet
	facet normal 0 -0.8660253927691834 -0.5000000190789811
		outer loop
			vertex 5.5 -9.526279449462889 39
			vertex 9.5 -16.45448303222656 51
			vertex -9.5 -16.45448303222656 51
		endloop
	endfacet
	facet normal 0 -0.6099943321408238 -0.7924057765791909
		outer loop
			vertex -9.5 -16.45448303222656 51
			vertex 9.5 -16.45448303222656 51
			vertex -12.5 -21.650634765624996 55
		endloop
	endfacet
	facet normal 0 -0.6099943321408238 -0.7924057765791909
		outer loop
			vertex 9.5 -16.45448303222656 51
			vertex 12.5 -21.650634765624996 55
			vertex -12.5 -21.650634765624996 55
		endloop
	endfacet
	facet normal 0 -0.755928929535764 -0.6546536897405484
		outer loop
			vertex -12.5 -21.650634765624996 55
			vertex 12.5 -21.650634765624996 55
			vertex -14.5 -25.114736557006832 59
		endloop
	endfacet
	facet normal 0 -0.755928929535764 -0.6546536897405484
		outer loop
			vertex 12.5 -21.650634765624996 55
			vertex 14.5 -25.114736557006832 59
			vertex -14.5 -25.114736557006832 59
		endloop
	endfacet
	facet normal 0 -0.8219949229632613 0.5694948170287615
		outer loop
			vertex -14.5 -25.114736557006832 59
			vertex 14.5 -25.114736557006832 59
			vertex -10.5 -18.18653297424316 69
		endloop
	endfacet
	facet normal 0 -0.8219949229632612 0.5694948170287615
		outer loop
			vertex 14.5 -25.114736557006832 59
			vertex 10.5 -18.18653297424316 69
			vertex -10.5 -18.18653297424316 69
		endloop
	endfacet
	facet normal 0 0.9773556249108172 0.21160336116230813
		outer loop
			vertex -10.5 -18.18653297424316 69
			vertex 10.5 -18.18653297424316 69
			vertex -10 -17.320508956909176 65
		endloop
	endfacet
	facet normal 0 0.9773556249108171 0.21160336116230807
		outer loop
			vertex 10.5 -18.18653297424316 69
			vertex 10 -17.320508956909176 65
			vertex -10 -17.320508956909176 65
		endloop
	endfacet
	facet normal 0 -0.8660253927691836 0.5000000190789812
		outer loop
			vertex -10 -17.320508956909176 65
			vertex 10 -17.320508956909176 65
			vertex -5 -8.660254478454585 80
		endloop
	endfacet
	facet normal 0 -0.8660253927691836 0.5000000190789812
		outer loop
			vertex 10 -17.320508956909176 65
			vertex 5 -8.660254478454585 80
			vertex -5 -8.660254478454585 80
		endloop
	endfacet
	facet normal 0 0.4999999809210191 -0.8660254147996932
		outer loop
			vertex -5 -8.660254478454585 80
			vertex 5 -8.660254478454585 80
			vertex -10 -17.320508956909176 75
		endloop
	endfacet
	facet normal 0 0.4999999809210191 -0.8660254147996932
		outer loop
			vertex 5 -8.660254478454585 80
			vertex 10 -17.320508956909176 75
			vertex -10 -17.320508956909176 75
		endloop
	endfacet
	facet normal 0 -0.6546536516754057 0.7559289625011446
		outer loop
			vertex -10 -17.320508956909176 75
			vertex 10 -17.320508956909176 75
			vertex 0 5.5109105961630896e-15 90
		endloop
	endfacet
	facet normal 0.7262738452904144 -0.4193144242718152 -0.5447033277341633
		outer loop
			vertex 0 5.5109105961630896e-15 90
			vertex -0.6000000238418579 5.498663942908478e-15 89.19999694824219
			vertex -0.30000001192092896 0.519615232944494 89.19999694824219
		endloop
	endfacet
	facet normal 0.5669465352294756 -0.32732675361259567 0.755929112126747
		outer loop
			vertex -0.30000001192092896 0.519615232944494 89.19999694824219
			vertex -0.6000000238418579 5.498663942908478e-15 89.19999694824219
			vertex 5.263932228088379 -9.117397308349604 80.8541030883789
		endloop
	endfacet
	facet normal -0.5669465297756285 0.32732675880601897 -0.7559291139683131
		outer loop
			vertex -0.6000000238418579 5.498663942908478e-15 89.19999694824219
			vertex 10.527864456176758 4.306240173682113e-15 80.8541030883789
			vertex 5.263932228088379 -9.117397308349604 80.8541030883789
		endloop
	endfacet
	facet normal 0.43301228724491053 -0.24999978139587564 0.866025674213499
		outer loop
			vertex 5.263932228088379 -9.117397308349604 80.8541030883789
			vertex 10.527864456176758 4.306240173682113e-15 80.8541030883789
			vertex 3.539595127105713 -6.130758762359614 82.57843780517578
		endloop
	endfacet
	facet normal 0.43301225358127365 -0.24999973448040802 0.8660257045886066
		outer loop
			vertex 10.527864456176758 4.306240173682113e-15 80.8541030883789
			vertex 7.079190254211426 4.622995592739711e-15 82.57843780517578
			vertex 3.539595127105713 -6.130758762359614 82.57843780517578
		endloop
	endfacet
	facet normal -0.7499999888684741 0.43301268388294 -0.5000000322937809
		outer loop
			vertex 3.539595127105713 -6.130758762359614 82.57843780517578
			vertex 7.079190254211426 4.622995592739711e-15 82.57843780517578
			vertex 10.210939407348633 -17.685865402221676 62.56440734863281
		endloop
	endfacet
	facet normal -0.7499999741310739 0.43301269783515517 -0.5000000423169074
		outer loop
			vertex 7.079190254211426 4.622995592739711e-15 82.57843780517578
			vertex 20.421878814697266 2.5804856612899827e-15 62.56440734863281
			vertex 10.210939407348633 -17.685865402221676 62.56440734863281
		endloop
	endfacet
	facet normal 0.8464147690757848 -0.488677807048794 -0.21160349616291177
		outer loop
			vertex 10.210939407348633 -17.685865402221676 62.56440734863281
			vertex 20.421878814697266 2.5804856612899827e-15 62.56440734863281
			vertex 10.74022102355957 -18.60260963439941 66.79866790771484
		endloop
	endfacet
	facet normal 0.8464148196729403 -0.4886777941140833 -0.21160332364548945
		outer loop
			vertex 20.421878814697266 2.5804856612899827e-15 62.56440734863281
			vertex 21.48044204711914 2.774940994056079e-15 66.79866790771484
			vertex 10.74022102355957 -18.60260963439941 66.79866790771484
		endloop
	endfacet
	facet normal -0.7118686051820856 0.41099750570751065 -0.5694946349688615
		outer loop
			vertex 10.74022102355957 -18.60260963439941 66.79866790771484
			vertex 21.48044204711914 2.774940994056079e-15 66.79866790771484
			vertex 13.830000877380371 -23.95426559448242 59.074214935302734
		endloop
	endfacet
	facet normal -0.7118686036383899 0.41099750581233363 -0.5694946368228326
		outer loop
			vertex 21.48044204711914 2.774940994056079e-15 66.79866790771484
			vertex 27.660001754760742 1.9235657761265957e-15 59.074214935302734
			vertex 13.830000877380371 -23.95426559448242 59.074214935302734
		endloop
	endfacet
	facet normal -0.6546537683630934 0.37796450720356883 0.6546535533107299
		outer loop
			vertex 13.830000877380371 -23.95426559448242 59.074214935302734
			vertex 27.660001754760742 1.9235657761265957e-15 59.074214935302734
			vertex 12.181455612182617 -21.09889984130859 55.777122497558594
		endloop
	endfacet
	facet normal -0.654653832175335 0.37796456962063546 0.6546534534619337
		outer loop
			vertex 27.660001754760742 1.9235657761265957e-15 59.074214935302734
			vertex 24.362911224365234 1.923565700019948e-15 55.777122497558594
			vertex 12.181455612182617 -21.09889984130859 55.777122497558594
		endloop
	endfacet
	facet normal -0.5282703126621019 0.3049970099544353 0.7924060200924393
		outer loop
			vertex 12.181455612182617 -21.09889984130859 55.777122497558594
			vertex 24.362911224365234 1.923565700019948e-15 55.777122497558594
			vertex 9.139445304870605 -15.829982757568356 51.72111129760742
		endloop
	endfacet
	facet normal -0.5282703331350531 0.3049970356768246 0.792405996543268
		outer loop
			vertex 24.362911224365234 1.923565700019948e-15 55.777122497558594
			vertex 18.27889060974121 2.0477454978414815e-15 51.72111129760742
			vertex 9.139445304870605 -15.829982757568356 51.72111129760742
		endloop
	endfacet
	facet normal -0.7500000095190906 0.4330127310072381 0.499999960507016
		outer loop
			vertex 9.139445304870605 -15.829982757568356 51.72111129760742
			vertex 18.27889060974121 2.0477454978414815e-15 51.72111129760742
			vertex 4.8422932624816895 -8.387098312377928 38.829654693603516
		endloop
	endfacet
	facet normal -0.7500000129146027 0.43301269093719363 0.4999999901154261
		outer loop
			vertex 18.27889060974121 2.0477454978414815e-15 51.72111129760742
			vertex 9.684586524963379 1.7846206797312643e-15 38.829654693603516
			vertex 4.8422932624816895 -8.387098312377928 38.829654693603516
		endloop
	endfacet
	facet normal -0.6194379093210671 0.3576326284865883 -0.698853045738315
		outer loop
			vertex 4.8422932624816895 -8.387098312377928 38.829654693603516
			vertex 9.684586524963379 1.7846206797312643e-15 38.829654693603516
			vertex 27.168346405029297 -47.05695724487305 -0.7483469247817964
		endloop
	endfacet
	facet normal -0.6194379032384499 0.35763263323662503 -0.698853048698931
		outer loop
			vertex 9.684586524963379 1.7846206797312643e-15 38.829654693603516
			vertex 54.336692810058594 -3.3729858142946e-15 -0.7483469247817993
			vertex 27.168346405029297 -47.05695724487305 -0.7483469247817964
		endloop
	endfacet
	facet normal 0.6869694192001502 -0.39662197139881866 -0.6089039570306002
		outer loop
			vertex 27.168346405029297 -47.05695724487305 -0.7483469247817964
			vertex 54.336692810058594 -3.3729858142946e-15 -0.7483469247817993
			vertex 27.5 -47.63139724731445 2.9165819088919847e-15
		endloop
	endfacet
	facet normal 0.6869692208302154 -0.39662186424514506 -0.608904250629467
		outer loop
			vertex 54.336692810058594 -3.3729858142946e-15 -0.7483469247817993
			vertex 55 -3.3677786460858646e-15 2.0621696695829306e-31
			vertex 27.5 -47.63139724731445 2.9165819088919847e-15
		endloop
	endfacet
	facet normal 0.6194379146052043 -0.357632646449471 0.6988530318622818
		outer loop
			vertex 27.5 -47.63139724731445 2.9165819088919847e-15
			vertex 55 -3.3677786460858646e-15 2.0621696695829306e-31
			vertex 5.5 -9.526279449462889 39
		endloop
	endfacet
	facet normal 0.6194379146052043 -0.35763264644947107 0.6988530318622818
		outer loop
			vertex 55 -3.3677786460858646e-15 2.0621696695829306e-31
			vertex 11 1.714505529120166e-15 39
			vertex 5.5 -9.526279449462889 39
		endloop
	endfacet
	facet normal 0.749999995422996 -0.4330126988935912 -0.5000000094623941
		outer loop
			vertex 5.5 -9.526279449462889 39
			vertex 11 1.714505529120166e-15 39
			vertex 9.5 -16.45448303222656 51
		endloop
	endfacet
	facet normal 0.7500000030794228 -0.43301269418796146 -0.5000000020529487
		outer loop
			vertex 11 1.714505529120166e-15 39
			vertex 19 1.9594348675745106e-15 51
			vertex 9.5 -16.45448303222656 51
		endloop
	endfacet
	facet normal 0.5282705705048846 -0.30499714940708844 -0.7924057945219697
		outer loop
			vertex 9.5 -16.45448303222656 51
			vertex 19 1.9594348675745106e-15 51
			vertex 12.5 -21.650634765624996 55
		endloop
	endfacet
	facet normal 0.5282705430486596 -0.3049971448685895 -0.7924058145729894
		outer loop
			vertex 19 1.9594348675745106e-15 51
			vertex 25 1.8369702510377697e-15 55
			vertex 12.5 -21.650634765624996 55
		endloop
	endfacet
	facet normal 0.6546536600180481 -0.377964472580644 -0.6546536816453488
		outer loop
			vertex 12.5 -21.650634765624996 55
			vertex 25 1.8369702510377697e-15 55
			vertex 14.5 -25.114736557006832 59
		endloop
	endfacet
	facet normal 0.6546536701391987 -0.37796447497953356 -0.6546536701391988
		outer loop
			vertex 25 1.8369702510377697e-15 55
			vertex 29 1.8369701874106472e-15 59
			vertex 14.5 -25.114736557006832 59
		endloop
	endfacet
	facet normal 0.7118684895078078 -0.41099746654453445 0.5694948078251868
		outer loop
			vertex 14.5 -25.114736557006832 59
			vertex 29 1.8369701874106472e-15 59
			vertex 10.5 -18.18653297424316 69
		endloop
	endfacet
	facet normal 0.7118684934738292 -0.41099747775242274 0.5694947947790634
		outer loop
			vertex 29 1.8369701874106472e-15 59
			vertex 21 2.9391523280183917e-15 69
			vertex 10.5 -18.18653297424316 69
		endloop
	endfacet
	facet normal -0.8464147632257022 0.48867780497012103 0.21160352436375718
		outer loop
			vertex 10.5 -18.18653297424316 69
			vertex 21 2.9391523280183917e-15 69
			vertex 10 -17.320508956909176 65
		endloop
	endfacet
	facet normal -0.8464147493140864 0.48867775849996054 0.2116036873285216
		outer loop
			vertex 21 2.9391523280183917e-15 69
			vertex 20 2.755455297583289e-15 65
			vertex 10 -17.320508956909176 65
		endloop
	endfacet
	facet normal 0.7500000071546176 -0.43301268399243054 0.500000004769745
		outer loop
			vertex 10 -17.320508956909176 65
			vertex 20 2.755455297583289e-15 65
			vertex 5 -8.660254478454585 80
		endloop
	endfacet
	facet normal 0.7500000071546176 -0.43301268399243054 0.5000000047697452
		outer loop
			vertex 20 2.755455297583289e-15 65
			vertex 10 4.286263796766609e-15 80
			vertex 5 -8.660254478454585 80
		endloop
	endfacet
	facet normal -0.4330127032691261 0.24999998807563714 -0.8660254065382523
		outer loop
			vertex 5 -8.660254478454585 80
			vertex 10 4.286263796766609e-15 80
			vertex 10 -17.320508956909176 75
		endloop
	endfacet
	facet normal -0.4330127032691261 0.24999998807563714 -0.8660254065382523
		outer loop
			vertex 10 4.286263796766609e-15 80
			vertex 20 3.3677786971569657e-15 75
			vertex 10 -17.320508956909176 75
		endloop
	endfacet
	facet normal 0.566946712604345 -0.3273268204847925 0.755928950139127
		outer loop
			vertex 10 -17.320508956909176 75
			vertex 20 3.3677786971569657e-15 75
			vertex 0 5.5109105961630896e-15 90
		endloop
	endfacet
endsolid exported
